STARTFONT 2.1
COMMENT
COMMENT Converted from OpenType font "Logisoso.ttf" by "otf2bdf 3.0".
COMMENT
FONT -FreeType-Logisoso-Medium-R-Normal--66-660-72-72-P-77-ISO10646-1
SIZE 66 72 72
FONTBOUNDINGBOX 178 68 -5 -12
STARTPROPERTIES 19
FOUNDRY "FreeType"
FAMILY_NAME "Logisoso"
WEIGHT_NAME "Medium"
SLANT "R"
SETWIDTH_NAME "Normal"
ADD_STYLE_NAME ""
PIXEL_SIZE 66
POINT_SIZE 660
RESOLUTION_X 72
RESOLUTION_Y 72
SPACING "P"
AVERAGE_WIDTH 77
CHARSET_REGISTRY "ISO10646"
CHARSET_ENCODING "1"
FONT_ASCENT 55
FONT_DESCENT 11
COPYRIGHT "Created by Mathieu Gabiot with FontForge 2.0 (http://fontforge.sf.net) - Brussels - 2009"
_OTF_FONTFILE "Logisoso.ttf"
_OTF_PSNAME "Logisoso"
ENDPROPERTIES
CHARS 527
STARTCHAR 001E
ENCODING 30
SWIDTH 454 0
DWIDTH 30 0
BBX 0 0 0 0
BITMAP
ENDCHAR
STARTCHAR 001F
ENCODING 31
SWIDTH 454 0
DWIDTH 30 0
BBX 0 0 0 0
BITMAP
ENDCHAR
STARTCHAR 0020
ENCODING 32
SWIDTH 454 0
DWIDTH 30 0
BBX 0 0 0 0
BITMAP
ENDCHAR
STARTCHAR 0021
ENCODING 33
SWIDTH 272 0
DWIDTH 18 0
BBX 6 46 6 0
BITMAP
FC
FC
FC
FC
FC
FC
FC
FC
FC
FC
FC
FC
FC
FC
FC
FC
FC
FC
FC
FC
FC
FC
FC
FC
FC
FC
FC
FC
FC
FC
FC
FC
FC
FC
FC
FC
FC
00
00
00
30
F8
FC
FC
F8
78
ENDCHAR
STARTCHAR 0022
ENCODING 34
SWIDTH 439 0
DWIDTH 29 0
BBX 13 8 8 38
BITMAP
78F0
7CF8
FDF8
7CF8
78F0
3870
3060
2040
ENDCHAR
STARTCHAR 0023
ENCODING 35
SWIDTH 439 0
DWIDTH 29 0
BBX 23 46 3 0
BITMAP
01FC7E
01F87E
01F87E
01F8FE
01F8FC
01F8FC
01F8FC
03F8FC
03F0FC
03F0FC
03F1FC
03F1F8
03F1F8
07F1F8
07E1F8
FFFFFE
FFFFFE
FFFFFE
FFFFFE
FFFFFE
FFFFFE
0FC3F0
0FC3F0
0FC7F0
0FC7E0
0FC7E0
FFFFFE
FFFFFE
FFFFFE
FFFFFE
FFFFFE
FFFFFE
1F8FC0
3F8FC0
3F0FC0
3F0FC0
3F1FC0
3F1F80
3F1F80
7F1F80
7F1F80
7E1F80
7E3F80
7E3F00
7E3F00
7E3F00
ENDCHAR
STARTCHAR 0024
ENCODING 36
SWIDTH 439 0
DWIDTH 29 0
BBX 23 58 3 -6
BITMAP
007E00
007E00
007E00
007E00
007E00
007E00
00FF00
03FFC0
07FFE0
0FFFF0
1FFFF8
3FFFF8
7F83FC
7F01FC
FE00FE
FC007E
FC007E
FC007E
FC0000
FC0000
FC0000
7E0000
7F0000
3FC000
3FE000
1FF000
0FF800
07FC00
01FE00
00FF00
007FC0
003FE0
001FF0
000FF8
0007F8
0001FC
0000FC
0000FE
00007E
00007E
FC007E
FC007E
FC007E
FE00FE
7F01FC
7F83FC
3FFFF8
1FFFF0
0FFFF0
07FFE0
03FF80
007E00
007E00
007E00
007E00
007E00
007E00
007E00
ENDCHAR
STARTCHAR 0025
ENCODING 37
SWIDTH 454 0
DWIDTH 30 0
BBX 24 47 3 -1
BITMAP
0F003F
3FC07E
7FE07E
7FE07E
FFF0FC
F9F0FC
F9F1FC
FFF1F8
FFF1F8
7FE3F0
3FC3F0
1F83F0
0007E0
0007E0
000FC0
000FC0
000FC0
001F80
001F80
003F80
003F00
003F00
007E00
007E00
007E00
00FC00
00FC00
01FC00
01F800
01F800
03F000
03F000
03F000
07E000
07E000
0FC0F0
0FC3FC
0FC7FE
1F8FFE
1F8FFF
3F8F9F
3F0F9F
3F0FFF
7E0FFE
7E07FE
7E03FC
FC00F0
ENDCHAR
STARTCHAR 0026
ENCODING 38
SWIDTH 439 0
DWIDTH 29 0
BBX 23 47 3 0
BITMAP
00FE00
03FF80
07FFC0
0FFFE0
1FFFF0
3FFFF8
3F83F8
3F01F8
7E00FC
7E00FC
7E0000
7E0000
7F0000
3F0000
3F0000
3F8000
1F8000
1FC000
1FC000
3FE000
3FE000
7FF000
7FF000
FFF000
FFF800
FDF800
FDFC00
FCFC7E
FCFE7E
FC7E7E
FC7F7E
FC3F7E
FC3F7E
FC1FFE
FC1FFE
FC0FFE
FC0FFE
FC0FFE
FE07FE
7F07FC
7F83FC
3FFFF8
3FFFF8
1FFFFC
0FFFFC
03FFFC
00FE7E
ENDCHAR
STARTCHAR 0027
ENCODING 39
SWIDTH 257 0
DWIDTH 17 0
BBX 6 8 5 38
BITMAP
78
7C
FC
7C
78
38
30
20
ENDCHAR
STARTCHAR 0028
ENCODING 40
SWIDTH 454 0
DWIDTH 30 0
BBX 12 46 9 0
BITMAP
0100
0380
03E0
07F0
07E0
0FE0
0FC0
1FC0
1F80
1F80
3F00
3F00
3F00
7E00
7E00
7E00
7C00
FC00
FC00
FC00
FC00
FC00
FC00
FC00
FC00
FC00
FC00
FC00
FC00
FC00
7E00
7E00
7E00
7E00
7F00
3F00
3F00
3F80
1F80
1FC0
0FC0
0FE0
07E0
07F0
03C0
0300
ENDCHAR
STARTCHAR 0029
ENCODING 41
SWIDTH 454 0
DWIDTH 30 0
BBX 12 46 10 0
BITMAP
0800
3800
7C00
FE00
7E00
7F00
3F00
3F00
1F80
1F80
0FC0
0FC0
0FC0
07C0
07E0
07E0
07E0
03E0
03E0
03F0
03F0
03F0
03F0
03F0
03F0
03F0
03F0
03F0
03E0
07E0
07E0
07E0
07E0
0FE0
0FC0
0FC0
1FC0
1F80
3F80
3F80
7F00
7F00
FE00
FE00
3C00
0800
ENDCHAR
STARTCHAR 002A
ENCODING 42
SWIDTH 454 0
DWIDTH 30 0
BBX 20 20 5 32
BITMAP
00F000
00F000
00F000
20F040
38F1C0
7EF7E0
FFFFF0
7FFFE0
1FFF80
07FE00
07FE00
1FFF80
7FFFE0
FFFFF0
7EF7E0
38F1C0
20F040
00F000
00F000
00F000
ENDCHAR
STARTCHAR 002B
ENCODING 43
SWIDTH 454 0
DWIDTH 30 0
BBX 18 18 6 9
BITMAP
03F000
03F000
03F000
03F000
03F000
03F000
FFFFC0
FFFFC0
FFFFC0
FFFFC0
FFFFC0
FFFFC0
03F000
03F000
03F000
03F000
03F000
03F000
ENDCHAR
STARTCHAR 002C
ENCODING 44
SWIDTH 257 0
DWIDTH 17 0
BBX 6 9 6 -3
BITMAP
30
F8
FC
FC
FC
78
18
18
18
ENDCHAR
STARTCHAR 002D
ENCODING 45
SWIDTH 454 0
DWIDTH 30 0
BBX 18 6 6 15
BITMAP
FFFFC0
FFFFC0
FFFFC0
FFFFC0
FFFFC0
FFFFC0
ENDCHAR
STARTCHAR 002E
ENCODING 46
SWIDTH 257 0
DWIDTH 17 0
BBX 6 6 6 0
BITMAP
30
F8
FC
FC
F8
70
ENDCHAR
STARTCHAR 002F
ENCODING 47
SWIDTH 454 0
DWIDTH 30 0
BBX 22 46 4 0
BITMAP
0000FC
0001FC
0001F8
0001F8
0003F8
0003F0
0007F0
0007E0
0007E0
000FE0
000FC0
000FC0
001FC0
001F80
001F80
003F80
003F00
003F00
007F00
007E00
007E00
00FE00
00FC00
01FC00
01F800
01F800
03F800
03F000
03F000
07F000
07E000
07E000
0FE000
0FC000
0FC000
1FC000
1F8000
1F8000
3F8000
3F0000
3F0000
7E0000
7E0000
FE0000
FC0000
FC0000
ENDCHAR
STARTCHAR 0030
ENCODING 48
SWIDTH 454 0
DWIDTH 30 0
BBX 23 46 3 0
BITMAP
00FE00
03FF80
0FFFE0
1FFFF0
3FFFF8
3FFFF8
7F83FC
7F01FC
FE00FE
FC007E
FC007E
FC007E
FC007E
FC007E
FC007E
FC007E
FC007E
FC007E
FC007E
FC007E
FC007E
FC007E
FC007E
FC007E
FC007E
FC007E
FC007E
FC007E
FC007E
FC007E
FC007E
FC007E
FC007E
FC007E
FC007E
FC007E
FC007E
FE00FE
7E00FC
7F83FC
3FFFF8
3FFFF8
1FFFF0
0FFFE0
03FF80
00FE00
ENDCHAR
STARTCHAR 0031
ENCODING 49
SWIDTH 454 0
DWIDTH 30 0
BBX 12 46 10 0
BITMAP
03F0
03F0
03F0
07F0
07F0
0FF0
1FF0
7FF0
FFF0
FFF0
FFF0
FBF0
E3F0
03F0
03F0
03F0
03F0
03F0
03F0
03F0
03F0
03F0
03F0
03F0
03F0
03F0
03F0
03F0
03F0
03F0
03F0
03F0
03F0
03F0
03F0
03F0
03F0
03F0
03F0
03F0
03F0
03F0
03F0
03F0
03F0
03F0
ENDCHAR
STARTCHAR 0032
ENCODING 50
SWIDTH 454 0
DWIDTH 30 0
BBX 23 46 3 0
BITMAP
00FE00
03FF80
07FFE0
1FFFF0
3FFFF8
3FFFF8
7F83FC
7F01FC
FE00FE
FC007E
FC007E
FC007E
FC007E
FC007E
FE00FE
7C00FC
7001FC
0003F8
0003F8
0007F0
0007F0
000FE0
001FC0
001FC0
003F80
007F00
007F00
00FE00
01FC00
01FC00
03F800
03F000
07F000
0FE000
0FE000
1FC000
3F8000
3F8000
7F0000
FE0000
FFFFFE
FFFFFE
FFFFFE
FFFFFE
FFFFFE
FFFFFE
ENDCHAR
STARTCHAR 0033
ENCODING 51
SWIDTH 454 0
DWIDTH 30 0
BBX 23 46 3 -1
BITMAP
FFFFFE
FFFFFE
FFFFFE
FFFFFE
FFFFFE
FFFFFE
0000FE
0001FC
0003F8
0003F8
0007F0
0007E0
000FE0
001FC0
001F80
003F80
007F00
007E00
00FF00
00FF80
00FFE0
00FFF0
00FFF0
000FF8
0003FC
0000FC
0000FE
00007E
00007E
00007E
00007E
00007E
00007E
00007E
00007E
00007E
00007E
0800FE
3C01FC
FE03FC
FFCFF8
7FFFF8
3FFFF0
1FFFE0
0FFF80
03FE00
ENDCHAR
STARTCHAR 0034
ENCODING 52
SWIDTH 454 0
DWIDTH 30 0
BBX 23 46 3 0
BITMAP
00FC00
01F800
01F800
01F800
01F800
03F000
03F000
03F000
03F000
07E000
07E000
07E000
07E000
0FC000
0FC000
0FC000
0F8000
1F8000
1F8000
1F8000
1F0000
3F0000
3F0000
3F1F80
3E1F80
7E1F80
7E1F80
7E1F80
7C1F80
FC1F80
FC1F80
FFFFFE
FFFFFE
FFFFFE
FFFFFE
FFFFFE
FFFFFE
001F80
001F80
001F80
001F80
001F80
001F80
001F80
001F80
001F80
ENDCHAR
STARTCHAR 0035
ENCODING 53
SWIDTH 454 0
DWIDTH 30 0
BBX 23 46 3 0
BITMAP
FFFFFE
FFFFFE
FFFFFE
FFFFFE
FFFFFE
FFFFFE
FC0000
FC0000
FC0000
FC0000
FC0000
FC0000
FC0000
FC0000
FC0000
FCFE00
FFFF80
FFFFE0
FFFFF0
FFFFF8
FFFFF8
FF83FC
FE00FC
FE00FE
FC007E
FC007E
FC007E
00007E
00007E
00007E
00007E
00007E
00007E
00007E
FC007E
FC007E
FC007E
FE00FE
7E00FC
7F83FC
3FFFF8
3FFFF8
1FFFF0
0FFFE0
03FF80
00FE00
ENDCHAR
STARTCHAR 0036
ENCODING 54
SWIDTH 454 0
DWIDTH 30 0
BBX 23 46 3 0
BITMAP
00FE00
03FF80
0FFFE0
1FFFF0
3FFFF8
3FFFF8
7F83FC
7E00FC
FE00FE
FC007E
FC007E
FC0000
FC0000
FC0000
FC0000
FC0000
FC0000
FC7E00
FFFF80
FFFFE0
FFFFF0
FFFFF8
FFFFF8
FF83FC
FF01FC
FE00FE
FC007E
FC007E
FC007E
FC007E
FC007E
FC007E
FC007E
FC007E
FC007E
FC007E
FC007E
FE00FE
7F01FC
7F83FC
3FFFF8
3FFFF8
1FFFF0
0FFFE0
03FF80
00FE00
ENDCHAR
STARTCHAR 0037
ENCODING 55
SWIDTH 454 0
DWIDTH 30 0
BBX 23 46 3 0
BITMAP
FFFFFE
FFFFFE
FFFFFE
FFFFFE
FFFFFE
FFFFFE
FC00FE
FC00FE
FC00FC
FC01FC
FC01FC
FC01F8
0001F8
0003F8
0003F8
0003F0
0003F0
0007F0
0007F0
0007E0
0007E0
000FE0
000FE0
000FC0
001FC0
001FC0
001FC0
001F80
003F80
003F80
003F00
003F00
007F00
007F00
007E00
007E00
00FE00
00FE00
00FC00
00FC00
01FC00
01FC00
01F800
03F800
03F800
03F800
ENDCHAR
STARTCHAR 0038
ENCODING 56
SWIDTH 454 0
DWIDTH 30 0
BBX 23 46 3 0
BITMAP
00FE00
03FF80
0FFFE0
1FFFF0
3FFFF8
3FFFF8
7F83FC
7F01FC
FE00FE
FC007E
FC007E
FC007E
FC007E
FC007E
FC007E
FC007E
FC007E
FE00FE
7F01FC
7F83FC
3FFFF8
3FFFF0
1FFFF0
1FFFF0
3FFFF0
3FFFF8
7F83FC
7F01FC
FE00FE
FC007E
FC007E
FC007E
FC007E
FC007E
FC007E
FC007E
FC007E
FE00FE
7F01FC
7F83FC
3FFFF8
3FFFF8
1FFFF0
0FFFE0
03FF80
00FE00
ENDCHAR
STARTCHAR 0039
ENCODING 57
SWIDTH 454 0
DWIDTH 30 0
BBX 23 46 3 0
BITMAP
00FE00
03FF80
0FFFE0
1FFFF0
3FFFF8
3FFFF8
7F83FC
7F01FC
FE00FE
FC007E
FC007E
FC007E
FC007E
FC007E
FC007E
FC007E
FC007E
FC007E
FC007E
FC007E
FE00FE
7F01FE
7F83FE
3FFFFE
3FFFFE
1FFFFE
0FFFFE
03FFFE
00FC7E
00007E
00007E
00007E
00007E
00007E
F8007E
FC007E
FC007E
FE00FE
7E00FC
7F83FC
3FFFF8
3FFFF8
1FFFF0
0FFFE0
03FF80
00FE00
ENDCHAR
STARTCHAR 003A
ENCODING 58
SWIDTH 257 0
DWIDTH 17 0
BBX 6 26 6 6
BITMAP
70
F8
FC
FC
F8
30
00
00
00
00
00
00
00
00
00
00
00
00
00
00
30
F8
FC
FC
F8
78
ENDCHAR
STARTCHAR 003B
ENCODING 59
SWIDTH 257 0
DWIDTH 17 0
BBX 6 29 6 3
BITMAP
70
F8
FC
FC
F8
30
00
00
00
00
00
00
00
00
00
00
00
00
00
00
30
F8
FC
FC
FC
78
18
18
18
ENDCHAR
STARTCHAR 003C
ENCODING 60
SWIDTH 454 0
DWIDTH 30 0
BBX 14 28 8 8
BITMAP
0004
000C
001C
003C
00FC
01FC
03F8
0FF0
1FE0
3F80
7F00
FE00
FC00
F000
F000
F800
FE00
FF00
3F80
1FC0
0FE0
07F8
01FC
00FC
007C
003C
000C
0004
ENDCHAR
STARTCHAR 003D
ENCODING 61
SWIDTH 439 0
DWIDTH 29 0
BBX 21 17 4 7
BITMAP
FFFFF8
FFFFF8
FFFFF8
FFFFF8
FFFFF8
FFFFF8
000000
000000
000000
000000
000000
FFFFF8
FFFFF8
FFFFF8
FFFFF8
FFFFF8
FFFFF8
ENDCHAR
STARTCHAR 003E
ENCODING 62
SWIDTH 454 0
DWIDTH 30 0
BBX 14 28 8 8
BITMAP
8000
C000
E000
F000
FC00
FE00
7F00
3F80
1FE0
0FF0
03F8
01FC
00FC
007C
003C
007C
00FC
03FC
07F8
0FE0
1FC0
7F80
FF00
FC00
F800
F000
C000
8000
ENDCHAR
STARTCHAR 003F
ENCODING 63
SWIDTH 439 0
DWIDTH 29 0
BBX 23 47 3 0
BITMAP
00FE00
03FF80
0FFFE0
1FFFF0
3FFFF8
3FFFF8
7F83FC
7F01FC
FE00FE
FC007E
FC007E
FC007E
00007E
00007E
00007E
0000FC
0001FC
0003FC
0007F8
000FF0
001FE0
003FC0
003F80
007F00
007E00
00FE00
00FC00
00FC00
00FC00
00FC00
00FC00
00FC00
00FC00
00FC00
00FC00
00FC00
00FC00
00FC00
000000
000000
000000
003000
007C00
00FC00
00FC00
007C00
007800
ENDCHAR
STARTCHAR 0040
ENCODING 64
SWIDTH 712 0
DWIDTH 47 0
BBX 41 55 3 -12
BITMAP
0000FF800000
000FFFF00000
003FFFFC0000
007FFFFF0000
01FFFFFF8000
03FFFFFFC000
07FF007FE000
0FFC001FF000
0FF00007F800
1FE00003FC00
3FC00001FC00
3F803FF8FE00
7F00FFF87E00
7E01FFF83F00
7E03FFF83F00
FE07FFF83F00
FC07FFF81F80
FC0FE3F81F80
FC0FC1F81F80
FC0FC1F81F80
FC0FC1F81F80
FC0FC1F81F80
FC0FC1F81F80
FC0FC1F81F80
FC0FC1F81F80
FC0FC1F81F80
FC0FC1F81F80
FC0FC1F81F80
FC0FC1F81F80
FC0FC1F81F80
FC0FC1F81F80
FC0FC1F81F80
FC0FC1F81F80
FC0FC1F81F80
FC0FC1F81F80
FC0FC1F81F80
FC0FE3FC3F80
FC07FFFFFF00
FC07FFFFFF00
7E03FFFFFE00
7E01FFFFFC00
7F00FF9FF800
3F003E07E000
3F8000000000
1FC000000000
1FE000000000
0FF000000000
07FC00000000
03FF00000000
01FFFFFFE000
00FFFFFFE000
007FFFFFE000
001FFFFFE000
0007FFFFE000
0000FFFFE000
ENDCHAR
STARTCHAR 0041
ENCODING 65
SWIDTH 439 0
DWIDTH 29 0
BBX 23 46 3 0
BITMAP
007E00
007E00
007E00
00FE00
00FE00
00FF00
00FF00
00FF00
01FF00
01FF00
01FF80
01FF80
01FF80
03FF80
03FF80
03FF80
03FFC0
03EFC0
07EFC0
07EFC0
07E7C0
07E7E0
07E7E0
0FC7E0
0FC7E0
0FC7E0
0FC3F0
0FC3F0
0F83F0
1F83F0
1F83F0
1F83F0
1FFFF8
1FFFF8
3FFFF8
3FFFF8
3FFFF8
3FFFFC
3E00FC
7E00FC
7E00FC
7E007C
7E007C
7C007E
FC007E
FC007E
ENDCHAR
STARTCHAR 0042
ENCODING 66
SWIDTH 439 0
DWIDTH 29 0
BBX 23 46 3 0
BITMAP
FFF800
FFFF00
FFFF80
FFFFE0
FFFFE0
FFFFF0
FC07F8
FC03F8
FC01FC
FC00FC
FC00FC
FC00FC
FC00FC
FC00FC
FC00FC
FC01FC
FC03F8
FC07F8
FFFFF0
FFFFE0
FFFFE0
FFFFC0
FFFFE0
FFFFF0
FC0FF8
FC03F8
FC01FC
FC00FC
FC00FE
FC007E
FC007E
FC007E
FC007E
FC007E
FC007E
FC00FE
FC00FC
FC01FC
FC03F8
FC0FF8
FFFFF0
FFFFE0
FFFFC0
FFFF80
FFFF00
FFF800
ENDCHAR
STARTCHAR 0043
ENCODING 67
SWIDTH 439 0
DWIDTH 29 0
BBX 23 46 3 0
BITMAP
00FE00
03FF80
0FFFE0
1FFFF0
3FFFF8
3FFFF8
7F83FC
7E01FC
FE00FE
FC007E
FC007E
FC003E
FC0000
FC0000
FC0000
FC0000
FC0000
FC0000
FC0000
FC0000
FC0000
FC0000
FC0000
FC0000
FC0000
FC0000
FC0000
FC0000
FC0000
FC0000
FC0000
FC0000
FC0000
FC0000
FC003E
FC007E
FC007E
FE00FE
7F00FC
7F83FC
3FFFF8
3FFFF8
1FFFF0
0FFFE0
03FF80
00FE00
ENDCHAR
STARTCHAR 0044
ENCODING 68
SWIDTH 439 0
DWIDTH 29 0
BBX 23 46 3 0
BITMAP
FFFE00
FFFF80
FFFFE0
FFFFF0
FFFFF8
FFFFF8
FC03FC
FC01FC
FC00FE
FC007E
FC007E
FC007E
FC007E
FC007E
FC007E
FC007E
FC007E
FC007E
FC007E
FC007E
FC007E
FC007E
FC007E
FC007E
FC007E
FC007E
FC007E
FC007E
FC007E
FC007E
FC007E
FC007E
FC007E
FC007E
FC007E
FC007E
FC007E
FC00FE
FC01FC
FC03FC
FFFFF8
FFFFF8
FFFFF0
FFFFE0
FFFF80
FFFE00
ENDCHAR
STARTCHAR 0045
ENCODING 69
SWIDTH 439 0
DWIDTH 29 0
BBX 23 46 3 0
BITMAP
FFFFFE
FFFFFE
FFFFFE
FFFFFE
FFFFFE
FFFFFE
FC0000
FC0000
FC0000
FC0000
FC0000
FC0000
FC0000
FC0000
FC0000
FC0000
FC0000
FC0000
FC0000
FC0000
FFFFC0
FFFFC0
FFFFC0
FFFFC0
FFFFC0
FFFFC0
FC0000
FC0000
FC0000
FC0000
FC0000
FC0000
FC0000
FC0000
FC0000
FC0000
FC0000
FC0000
FC0000
FC0000
FFFFFE
FFFFFE
FFFFFE
FFFFFE
FFFFFE
FFFFFE
ENDCHAR
STARTCHAR 0046
ENCODING 70
SWIDTH 439 0
DWIDTH 29 0
BBX 23 46 3 0
BITMAP
FFFFFE
FFFFFE
FFFFFE
FFFFFE
FFFFFE
FFFFFE
FC0000
FC0000
FC0000
FC0000
FC0000
FC0000
FC0000
FC0000
FC0000
FC0000
FC0000
FC0000
FC0000
FC0000
FFFFC0
FFFFC0
FFFFC0
FFFFC0
FFFFC0
FFFFC0
FC0000
FC0000
FC0000
FC0000
FC0000
FC0000
FC0000
FC0000
FC0000
FC0000
FC0000
FC0000
FC0000
FC0000
FC0000
FC0000
FC0000
FC0000
FC0000
FC0000
ENDCHAR
STARTCHAR 0047
ENCODING 71
SWIDTH 439 0
DWIDTH 29 0
BBX 23 46 3 0
BITMAP
00FE00
03FF80
0FFFE0
1FFFF0
3FFFF8
3FFFF8
7F83FC
7E01FC
FE00FE
FC007E
FC007E
FC007E
FC0000
FC0000
FC0000
FC0000
FC0000
FC0000
FC0000
FC0000
FC0000
FC0000
FC0FFE
FC0FFE
FC0FFE
FC0FFE
FC0FFE
FC0FFE
FC007E
FC007E
FC007E
FC007E
FC007E
FC007E
FC007E
FC007E
FC007E
FE00FE
7E00FE
7F83FE
3FFFFE
3FFFFE
1FFFFE
0FFFFE
03FFFE
00FE7E
ENDCHAR
STARTCHAR 0048
ENCODING 72
SWIDTH 439 0
DWIDTH 29 0
BBX 23 46 3 0
BITMAP
FC007E
FC007E
FC007E
FC007E
FC007E
FC007E
FC007E
FC007E
FC007E
FC007E
FC007E
FC007E
FC007E
FC007E
FC007E
FC007E
FC007E
FC007E
FC007E
FC007E
FFFFFE
FFFFFE
FFFFFE
FFFFFE
FFFFFE
FFFFFE
FC007E
FC007E
FC007E
FC007E
FC007E
FC007E
FC007E
FC007E
FC007E
FC007E
FC007E
FC007E
FC007E
FC007E
FC007E
FC007E
FC007E
FC007E
FC007E
FC007E
ENDCHAR
STARTCHAR 0049
ENCODING 73
SWIDTH 272 0
DWIDTH 18 0
BBX 6 46 6 0
BITMAP
FC
FC
FC
FC
FC
FC
FC
FC
FC
FC
FC
FC
FC
FC
FC
FC
FC
FC
FC
FC
FC
FC
FC
FC
FC
FC
FC
FC
FC
FC
FC
FC
FC
FC
FC
FC
FC
FC
FC
FC
FC
FC
FC
FC
FC
FC
ENDCHAR
STARTCHAR 004A
ENCODING 74
SWIDTH 439 0
DWIDTH 29 0
BBX 23 46 3 0
BITMAP
00007E
00007E
00007E
00007E
00007E
00007E
00007E
00007E
00007E
00007E
00007E
00007E
00007E
00007E
00007E
00007E
00007E
00007E
00007E
00007E
00007E
00007E
00007E
00007E
00007E
00007E
00007E
00007E
00007E
00007E
00007E
00007E
00007E
00007E
FC007E
FC007E
FC007E
FE00FE
7F00FC
7F83FC
3FFFF8
3FFFF8
1FFFF0
0FFFE0
03FF80
00FE00
ENDCHAR
STARTCHAR 004B
ENCODING 75
SWIDTH 439 0
DWIDTH 29 0
BBX 23 46 3 0
BITMAP
FC00FE
FC01FC
FC01FC
FC03F8
FC03F0
FC07F0
FC0FE0
FC0FE0
FC1FC0
FC1F80
FC3F80
FC7F00
FC7F00
FCFE00
FDFC00
FDFC00
FFF800
FFF000
FFF000
FFE000
FFE000
FFC000
FF8000
FF8000
FFC000
FFE000
FFE000
FFF000
FFF000
FFF800
FDFC00
FCFC00
FCFE00
FC7F00
FC7F00
FC3F80
FC1F80
FC1FC0
FC0FE0
FC0FE0
FC07F0
FC03F0
FC03F8
FC01FC
FC00FC
FC00FE
ENDCHAR
STARTCHAR 004C
ENCODING 76
SWIDTH 439 0
DWIDTH 29 0
BBX 23 46 3 0
BITMAP
FC0000
FC0000
FC0000
FC0000
FC0000
FC0000
FC0000
FC0000
FC0000
FC0000
FC0000
FC0000
FC0000
FC0000
FC0000
FC0000
FC0000
FC0000
FC0000
FC0000
FC0000
FC0000
FC0000
FC0000
FC0000
FC0000
FC0000
FC0000
FC0000
FC0000
FC0000
FC0000
FC0000
FC0000
FC0000
FC0000
FC0000
FC0000
FC0000
FC0000
FFFFFE
FFFFFE
FFFFFE
FFFFFE
FFFFFE
FFFFFE
ENDCHAR
STARTCHAR 004D
ENCODING 77
SWIDTH 439 0
DWIDTH 29 0
BBX 23 46 3 0
BITMAP
FC007E
FC007E
FE00FE
FE00FE
FE00FE
FF01FE
FF01FE
FF01FE
FF83FE
FF83FE
FF83FE
FFC7FE
FFC7FE
FFC7FE
FFEFFE
FFEFFE
FFFFFE
FFFFFE
FFFFFE
FFFFFE
FDFF7E
FDFF7E
FDFF7E
FCFE7E
FCFE7E
FCFE7E
FC7C7E
FC7C7E
FC7C7E
FC387E
FC387E
FC387E
FC107E
FC107E
FC007E
FC007E
FC007E
FC007E
FC007E
FC007E
FC007E
FC007E
FC007E
FC007E
FC007E
FC007E
ENDCHAR
STARTCHAR 004E
ENCODING 78
SWIDTH 439 0
DWIDTH 29 0
BBX 23 46 3 0
BITMAP
FC007E
FC007E
FE007E
FE007E
FE007E
FF007E
FF007E
FF807E
FF807E
FF807E
FFC07E
FFC07E
FFE07E
FFE07E
FFE07E
FFF07E
FFF07E
FFF07E
FDF87E
FDF87E
FCFC7E
FCFC7E
FCFC7E
FC7E7E
FC7E7E
FC7F7E
FC3F7E
FC3F7E
FC1FFE
FC1FFE
FC1FFE
FC0FFE
FC0FFE
FC0FFE
FC07FE
FC07FE
FC03FE
FC03FE
FC03FE
FC01FE
FC01FE
FC00FE
FC00FE
FC00FE
FC007E
FC007E
ENDCHAR
STARTCHAR 004F
ENCODING 79
SWIDTH 439 0
DWIDTH 29 0
BBX 23 46 3 0
BITMAP
00FE00
03FF80
0FFFE0
1FFFF0
3FFFF8
3FFFF8
7F83FC
7F01FC
FE00FE
FC007E
FC007E
FC007E
FC007E
FC007E
FC007E
FC007E
FC007E
FC007E
FC007E
FC007E
FC007E
FC007E
FC007E
FC007E
FC007E
FC007E
FC007E
FC007E
FC007E
FC007E
FC007E
FC007E
FC007E
FC007E
FC007E
FC007E
FC007E
FE00FE
7F01FC
7F83FC
3FFFF8
3FFFF8
1FFFF0
0FFFE0
03FF80
00FE00
ENDCHAR
STARTCHAR 0050
ENCODING 80
SWIDTH 439 0
DWIDTH 29 0
BBX 23 46 3 0
BITMAP
FFF800
FFFE00
FFFF80
FFFFC0
FFFFE0
FFFFF0
FC0FF8
FC03F8
FC01FC
FC00FC
FC00FE
FC007E
FC007E
FC007E
FC007E
FC007E
FC007E
FC00FE
FC00FC
FC01FC
FC03F8
FC0FF8
FFFFF0
FFFFE0
FFFFC0
FFFF80
FFFE00
FFF000
FC0000
FC0000
FC0000
FC0000
FC0000
FC0000
FC0000
FC0000
FC0000
FC0000
FC0000
FC0000
FC0000
FC0000
FC0000
FC0000
FC0000
FC0000
ENDCHAR
STARTCHAR 0051
ENCODING 81
SWIDTH 439 0
DWIDTH 29 0
BBX 23 46 3 0
BITMAP
00FE00
03FF80
0FFFE0
1FFFF0
3FFFF8
3FFFF8
7F83FC
7F01FC
FE00FE
FC007E
FC007E
FC007E
FC007E
FC007E
FC007E
FC007E
FC007E
FC007E
FC007E
FC007E
FC007E
FC007E
FC007E
FC007E
FC007E
FC007E
FC007E
FC007E
FC007E
FC007E
FC007E
FC007E
FC007E
FC007E
FC007E
FC007E
FC007E
FE00FE
7F01FC
7F83FC
3FFFF8
3FFFFC
1FFFFC
0FFFFC
03FFFE
00FE7E
ENDCHAR
STARTCHAR 0052
ENCODING 82
SWIDTH 439 0
DWIDTH 29 0
BBX 23 46 3 0
BITMAP
FFF800
FFFF00
FFFF80
FFFFC0
FFFFE0
FFFFF0
FC0FF8
FC03FC
FC01FC
FC00FC
FC00FE
FC007E
FC007E
FC007E
FC007E
FC007E
FC007E
FC00FC
FC00FC
FC01FC
FC03F8
FC0FF8
FFFFF0
FFFFE0
FFFFC0
FFFF00
FFFF00
FFFF80
FC1F80
FC1F80
FC0FC0
FC0FC0
FC0FC0
FC07E0
FC07E0
FC07E0
FC03F0
FC03F0
FC03F0
FC01F8
FC01F8
FC01F8
FC00FC
FC00FC
FC00FC
FC007E
ENDCHAR
STARTCHAR 0053
ENCODING 83
SWIDTH 439 0
DWIDTH 29 0
BBX 23 46 3 0
BITMAP
00FE00
03FF80
0FFFE0
1FFFF0
3FFFF8
3FFFF8
7F83FC
7F00FC
FE00FE
FC007E
FC007E
FC003E
FC0000
FC0000
FC0000
7E0000
7F0000
3FC000
3FE000
1FF000
0FF800
07FC00
01FE00
00FF00
007FC0
003FE0
001FF0
000FF8
0007F8
0001FC
0000FC
0000FE
00007E
00007E
FC007E
FC007E
FC007E
FE00FE
7F01FC
7F83FC
3FFFF8
3FFFF8
1FFFF0
0FFFE0
03FF80
00FE00
ENDCHAR
STARTCHAR 0054
ENCODING 84
SWIDTH 439 0
DWIDTH 29 0
BBX 23 46 3 0
BITMAP
FFFFFE
FFFFFE
FFFFFE
FFFFFE
FFFFFE
FFFFFE
007E00
007E00
007E00
007E00
007E00
007E00
007E00
007E00
007E00
007E00
007E00
007E00
007E00
007E00
007E00
007E00
007E00
007E00
007E00
007E00
007E00
007E00
007E00
007E00
007E00
007E00
007E00
007E00
007E00
007E00
007E00
007E00
007E00
007E00
007E00
007E00
007E00
007E00
007E00
007E00
ENDCHAR
STARTCHAR 0055
ENCODING 85
SWIDTH 439 0
DWIDTH 29 0
BBX 23 46 3 0
BITMAP
FC007E
FC007E
FC007E
FC007E
FC007E
FC007E
FC007E
FC007E
FC007E
FC007E
FC007E
FC007E
FC007E
FC007E
FC007E
FC007E
FC007E
FC007E
FC007E
FC007E
FC007E
FC007E
FC007E
FC007E
FC007E
FC007E
FC007E
FC007E
FC007E
FC007E
FC007E
FC007E
FC007E
FC007E
FC007E
FC007E
FC007E
FE00FE
7F01FC
7F83FC
3FFFF8
3FFFF8
1FFFF0
0FFFE0
03FF80
00FE00
ENDCHAR
STARTCHAR 0056
ENCODING 86
SWIDTH 439 0
DWIDTH 29 0
BBX 23 46 3 0
BITMAP
FC007E
FC007E
FC007C
7C00FC
7E00FC
7E00FC
7E00FC
7E00FC
3E00F8
3F01F8
3F01F8
3F01F8
3F01F8
1F01F8
1F81F0
1F83F0
1F83F0
1F83F0
0F83F0
0FC3E0
0FC3E0
0FC7E0
0FC7E0
07C7E0
07E7E0
07E7C0
07E7C0
07EFC0
03EFC0
03FFC0
03FFC0
03FF80
03FF80
01FF80
01FF80
01FF80
01FF80
01FF00
00FF00
00FF00
00FF00
00FF00
00FF00
007E00
007E00
007E00
ENDCHAR
STARTCHAR 0057
ENCODING 87
SWIDTH 469 0
DWIDTH 31 0
BBX 21 46 5 0
BITMAP
F801F8
F801F8
F801F8
F801F8
F801F8
F801F8
F801F8
F801F8
F801F8
F801F8
F801F8
F801F8
F801F8
F801F8
F801F8
F801F8
F861F8
F861F8
F861F8
F8E1F8
F8F1F8
F8F1F8
F9F1F8
F9F9F8
F9F9F8
FBF9F8
FBF9F8
FFFFF8
FFFFF8
FFFFF8
FFFFF8
FFFFF8
FFFFF8
FFFFF8
FFFFF8
FFFFF8
FFFFF8
FF9FF8
FF9FF8
FF9FF8
FF0FF8
FF0FF8
FF0FF8
FE07F8
FE07F8
FE07F8
ENDCHAR
STARTCHAR 0058
ENCODING 88
SWIDTH 439 0
DWIDTH 29 0
BBX 23 46 3 0
BITMAP
FC007E
7E007E
7E00FC
7E00FC
3F00FC
3F01F8
3F01F8
3F01F8
1F81F8
1F83F0
1F83F0
0FC3F0
0FC7E0
0FC7E0
0FC7E0
07EFC0
07EFC0
07EFC0
03FFC0
03FF80
03FF80
01FF80
01FF00
01FF00
01FF80
03FF80
03FF80
03FFC0
07FFC0
07EFC0
07E7C0
0FE7E0
0FC7E0
0FC7E0
0FC3F0
1F83F0
1F83F0
1F81F8
3F01F8
3F01F8
3F00F8
7F00FC
7E00FC
7E00FC
7E007E
FC007E
ENDCHAR
STARTCHAR 0059
ENCODING 89
SWIDTH 439 0
DWIDTH 29 0
BBX 23 46 3 0
BITMAP
FC007E
FC00FE
7E00FC
7E00FC
7E01FC
7E01F8
3F01F8
3F03F0
3F03F0
3F87F0
1F87E0
1F87E0
1F8FE0
0FCFC0
0FCFC0
0FDF80
0FFF80
07FF80
07FF00
07FF00
07FF00
03FE00
03FE00
03FC00
03FC00
01FC00
01F800
01F800
03F800
03F000
03F000
07E000
07E000
0FE000
0FC000
0FC000
1FC000
1F8000
1F8000
3F8000
3F0000
3F0000
7E0000
7E0000
FE0000
FC0000
ENDCHAR
STARTCHAR 005A
ENCODING 90
SWIDTH 439 0
DWIDTH 29 0
BBX 23 46 3 0
BITMAP
FFFFFE
FFFFFE
FFFFFE
FFFFFE
FFFFFE
FFFFFE
0000FE
0000FC
0001FC
0001F8
0003F8
0003F0
0007F0
0007E0
000FE0
000FC0
001FC0
001F80
003F80
003F00
003F00
007E00
007E00
00FC00
00FC00
01F800
01F800
03F000
03F000
07F000
07E000
0FE000
0FC000
1FC000
1F8000
3F8000
3F0000
7F0000
7E0000
FE0000
FFFFFE
FFFFFE
FFFFFE
FFFFFE
FFFFFE
FFFFFE
ENDCHAR
STARTCHAR 005B
ENCODING 91
SWIDTH 439 0
DWIDTH 29 0
BBX 13 46 8 0
BITMAP
FFF8
FFF8
FFF8
FFF8
FFF8
FFF8
FC00
FC00
FC00
FC00
FC00
FC00
FC00
FC00
FC00
FC00
FC00
FC00
FC00
FC00
FC00
FC00
FC00
FC00
FC00
FC00
FC00
FC00
FC00
FC00
FC00
FC00
FC00
FC00
FC00
FC00
FC00
FC00
FC00
FC00
FFF8
FFF8
FFF8
FFF8
FFF8
FFF8
ENDCHAR
STARTCHAR 005C
ENCODING 92
SWIDTH 454 0
DWIDTH 30 0
BBX 22 46 4 0
BITMAP
FC0000
FE0000
7E0000
7E0000
3F0000
3F0000
3F8000
1F8000
1F8000
1FC000
0FC000
0FC000
0FE000
07E000
07E000
07F000
03F000
03F000
03F800
01F800
01F800
01FC00
00FC00
00FE00
007E00
007E00
007F00
003F00
003F00
003F80
001F80
001F80
001FC0
000FC0
000FC0
000FE0
0007E0
0007E0
0007F0
0003F0
0003F0
0003F8
0001F8
0001FC
0000FC
0000FC
ENDCHAR
STARTCHAR 005D
ENCODING 93
SWIDTH 439 0
DWIDTH 29 0
BBX 13 46 8 0
BITMAP
FFF8
FFF8
FFF8
FFF8
FFF8
FFF8
01F8
01F8
01F8
01F8
01F8
01F8
01F8
01F8
01F8
01F8
01F8
01F8
01F8
01F8
01F8
01F8
01F8
01F8
01F8
01F8
01F8
01F8
01F8
01F8
01F8
01F8
01F8
01F8
01F8
01F8
01F8
01F8
01F8
01F8
FFF8
FFF8
FFF8
FFF8
FFF8
FFF8
ENDCHAR
STARTCHAR 005E
ENCODING 94
SWIDTH 454 0
DWIDTH 30 0
BBX 18 8 6 48
BITMAP
07F000
0FF800
0FFC00
1FFE00
3F3E00
7E3F00
FC1F80
FC0FC0
ENDCHAR
STARTCHAR 005F
ENCODING 95
SWIDTH 454 0
DWIDTH 30 0
BBX 30 4 0 -4
BITMAP
FFFFFFFC
FFFFFFFC
FFFFFFFC
FFFFFFFC
ENDCHAR
STARTCHAR 0060
ENCODING 96
SWIDTH 454 0
DWIDTH 30 0
BBX 11 9 9 44
BITMAP
FC00
7E00
3E00
1F00
0F80
0F80
07C0
03E0
01E0
ENDCHAR
STARTCHAR 0061
ENCODING 97
SWIDTH 500 0
DWIDTH 33 0
BBX 27 35 3 0
BITMAP
00FF0000
03FFC000
07FFE000
0FFFF000
1FFFF800
3FFFFC00
3F81FC00
3F00FE00
7E007E00
7E007E00
7E007E00
7E007E00
00007E00
00007E00
0000FE00
01FFFE00
07FFFE00
1FFFFE00
3FFFFE00
3FFFFE00
7FFFFE00
7F007E00
FE007E00
FC007E00
FC007E00
FC007E00
FC007E00
FE00FE00
7F01FF00
7FFFFFE0
3FFFFFE0
3FFFFFE0
1FFFFFE0
07FFC7E0
01FF01E0
ENDCHAR
STARTCHAR 0062
ENCODING 98
SWIDTH 439 0
DWIDTH 29 0
BBX 23 47 3 0
BITMAP
FC0000
FC0000
FC0000
FC0000
FC0000
FC0000
FC0000
FC0000
FC0000
FC0000
FC0000
FC0000
FCFE00
FFFF80
FFFFE0
FFFFF0
FFFFF8
FFFFF8
FF83FC
FF01FC
FE00FE
FC007E
FC007E
FC007E
FC007E
FC007E
FC007E
FC007E
FC007E
FC007E
FC007E
FC007E
FC007E
FC007E
FC007E
FC007E
FC007E
FC007E
FE00FE
FF01FC
FF83FC
FFFFF8
FFFFF8
FFFFF0
FFFFE0
FFFF80
FCFE00
ENDCHAR
STARTCHAR 0063
ENCODING 99
SWIDTH 439 0
DWIDTH 29 0
BBX 23 35 3 0
BITMAP
00FE00
03FF80
0FFFE0
1FFFF0
3FFFF8
3FFFF8
7F83FC
7F01FC
FE00FE
FC007E
FC007E
FC007E
FC0000
FC0000
FC0000
FC0000
FC0000
FC0000
FC0000
FC0000
FC0000
FC0000
FC0000
FC007E
FC007E
FC007E
FE00FE
7F01FC
7F83FC
3FFFF8
3FFFF8
1FFFF0
0FFFE0
03FF80
00FE00
ENDCHAR
STARTCHAR 0064
ENCODING 100
SWIDTH 439 0
DWIDTH 29 0
BBX 23 47 3 0
BITMAP
00007E
00007E
00007E
00007E
00007E
00007E
00007E
00007E
00007E
00007E
00007E
00007E
00FE7E
03FFFE
0FFFFE
1FFFFE
3FFFFE
3FFFFE
7F83FE
7F01FE
FE00FE
FC007E
FC007E
FC007E
FC007E
FC007E
FC007E
FC007E
FC007E
FC007E
FC007E
FC007E
FC007E
FC007E
FC007E
FC007E
FC007E
FC007E
FE00FE
7F01FE
7F83FE
3FFFFE
3FFFFE
1FFFFE
0FFFFE
03FFFE
00FE7E
ENDCHAR
STARTCHAR 0065
ENCODING 101
SWIDTH 439 0
DWIDTH 29 0
BBX 23 35 3 0
BITMAP
00FE00
03FF80
0FFFE0
1FFFF0
3FFFF8
3FFFF8
7F83FC
7E00FC
FE00FE
FC007E
FC007E
FC007E
FC007E
FC007E
FFFFFE
FFFFFE
FFFFFE
FFFFFE
FFFFFE
FFFFFE
FC0000
FC0000
FC0000
FC0000
FC0000
FC0040
FE00F0
7F01FC
7F83FC
3FFFF8
3FFFF8
1FFFF0
0FFFE0
03FF80
00FE00
ENDCHAR
STARTCHAR 0066
ENCODING 102
SWIDTH 439 0
DWIDTH 29 0
BBX 23 47 3 0
BITMAP
000F80
003FE0
007FF0
00FFF8
01FFFC
01FFFC
03F8FE
03F07E
03F07E
03F000
03F000
03F000
03F000
03F000
03F000
03F000
03F000
03F000
FFFFF0
FFFFF0
FFFFF0
FFFFF0
FFFFF0
FFFFF0
03F000
03F000
03F000
03F000
03F000
03F000
03F000
03F000
03F000
03F000
03F000
03F000
03F000
03F000
03F000
03F000
03F000
03F000
03F000
03F000
03F000
03F000
03F000
ENDCHAR
STARTCHAR 0067
ENCODING 103
SWIDTH 439 0
DWIDTH 29 0
BBX 23 47 3 -12
BITMAP
00FFFE
03FFFE
0FFFFE
1FFFFE
3FFFFE
3FFFFE
7F83FC
7F01FC
FE00FE
FC007E
FC007E
FC007E
FC007E
FC007E
FC007E
FE00FC
7F01FC
7F83FC
3FFFF8
1FFFF0
0FFFF0
07FFC0
0FFF80
0FFE00
1FC000
1F8000
1F8000
1F8000
1FC000
0FFF80
0FFFE0
1FFFF0
3FFFF8
7FFFFC
7FFFFC
FE00FE
FC007E
FC007E
FC007E
FC007E
FE00FE
7FFFFC
7FFFFC
3FFFF8
1FFFF0
0FFFE0
03FF80
ENDCHAR
STARTCHAR 0068
ENCODING 104
SWIDTH 439 0
DWIDTH 29 0
BBX 23 47 3 0
BITMAP
FC0000
FC0000
FC0000
FC0000
FC0000
FC0000
FC0000
FC0000
FC0000
FC0000
FC0000
FC0000
FCFE00
FFFF80
FFFFE0
FFFFF0
FFFFF8
FFFFF8
FF83FC
FF01FC
FE00FE
FC007E
FC007E
FC007E
FC007E
FC007E
FC007E
FC007E
FC007E
FC007E
FC007E
FC007E
FC007E
FC007E
FC007E
FC007E
FC007E
FC007E
FC007E
FC007E
FC007E
FC007E
FC007E
FC007E
FC007E
FC007E
FC007E
ENDCHAR
STARTCHAR 0069
ENCODING 105
SWIDTH 257 0
DWIDTH 17 0
BBX 9 47 4 0
BITMAP
7800
F800
FC00
FC00
F800
7000
0000
0000
0000
0000
0000
0000
FC00
FC00
FC00
FC00
FC00
FC00
FC00
FC00
FC00
FC00
FC00
FC00
FC00
FC00
FC00
FC00
FC00
FC00
FC00
FC00
FC00
FC00
FC00
FC00
FC00
FC00
FC00
FC00
FE00
7F80
7F80
3F80
1F80
0F80
0380
ENDCHAR
STARTCHAR 006A
ENCODING 106
SWIDTH 454 0
DWIDTH 30 0
BBX 18 59 6 -12
BITMAP
000780
000F80
000FC0
000FC0
000F80
000700
000000
000000
000000
000000
000000
000000
000FC0
000FC0
000FC0
000FC0
000FC0
000FC0
000FC0
000FC0
000FC0
000FC0
000FC0
000FC0
000FC0
000FC0
000FC0
000FC0
000FC0
000FC0
000FC0
000FC0
000FC0
000FC0
000FC0
000FC0
000FC0
000FC0
000FC0
000FC0
000FC0
000FC0
000FC0
000FC0
000FC0
000FC0
000FC0
000FC0
000FC0
000FC0
FC0FC0
FC0FC0
FE1FC0
7FFF80
7FFF80
3FFF00
1FFE00
0FFC00
03F000
ENDCHAR
STARTCHAR 006B
ENCODING 107
SWIDTH 439 0
DWIDTH 29 0
BBX 23 47 3 0
BITMAP
FC0000
FC0000
FC0000
FC0000
FC0000
FC0000
FC0000
FC0000
FC0000
FC0000
FC0000
FC0000
FC00FE
FC00FC
FC01FC
FC01F8
FC03F8
FC07F0
FC07F0
FC0FE0
FC0FC0
FC1FC0
FC1F80
FC3F80
FC7F00
FC7F00
FCFE00
FCFC00
FDFC00
FFF800
FFFC00
FFFC00
FFFE00
FFFF00
FFFF00
FFFF80
FFBF80
FF9FC0
FF0FC0
FE0FE0
FE07F0
FC07F0
FC03F8
FC01F8
FC01FC
FC00FC
FC00FE
ENDCHAR
STARTCHAR 006C
ENCODING 108
SWIDTH 272 0
DWIDTH 18 0
BBX 12 47 3 0
BITMAP
FC00
FC00
FC00
FC00
FC00
FC00
FC00
FC00
FC00
FC00
FC00
FC00
FC00
FC00
FC00
FC00
FC00
FC00
FC00
FC00
FC00
FC00
FC00
FC00
FC00
FC00
FC00
FC00
FC00
FC00
FC00
FC00
FC00
FC00
FC00
FC00
FC00
FC00
FC00
FC00
FE00
7FF0
7FF0
3FF0
1FF0
0FF0
03F0
ENDCHAR
STARTCHAR 006D
ENCODING 109
SWIDTH 696 0
DWIDTH 46 0
BBX 40 35 3 0
BITMAP
FCFE007F00
FFFF81FFC0
FFFFE3FFF0
FFFFF7FFF8
FFFFFFFFFC
FFFFFFFFFC
FF83FFC1FE
FF01FF807E
FE00FF007F
FC007E003F
FC007E003F
FC007E003F
FC007E003F
FC007E003F
FC007E003F
FC007E003F
FC007E003F
FC007E003F
FC007E003F
FC007E003F
FC007E003F
FC007E003F
FC007E003F
FC007E003F
FC007E003F
FC007E003F
FC007E003F
FC007E003F
FC007E003F
FC007E003F
FC007E003F
FC007E003F
FC007E003F
FC007E003F
FC007E003F
ENDCHAR
STARTCHAR 006E
ENCODING 110
SWIDTH 439 0
DWIDTH 29 0
BBX 23 35 3 0
BITMAP
FCFE00
FFFF80
FFFFE0
FFFFF0
FFFFF8
FFFFF8
FF83FC
FF01FC
FE00FE
FC007E
FC007E
FC007E
FC007E
FC007E
FC007E
FC007E
FC007E
FC007E
FC007E
FC007E
FC007E
FC007E
FC007E
FC007E
FC007E
FC007E
FC007E
FC007E
FC007E
FC007E
FC007E
FC007E
FC007E
FC007E
FC007E
ENDCHAR
STARTCHAR 006F
ENCODING 111
SWIDTH 439 0
DWIDTH 29 0
BBX 23 35 3 0
BITMAP
00FE00
03FF80
0FFFE0
1FFFF0
3FFFF8
3FFFF8
7F83FC
7F01FC
FE00FE
FC007E
FC007E
FC007E
FC007E
FC007E
FC007E
FC007E
FC007E
FC007E
FC007E
FC007E
FC007E
FC007E
FC007E
FC007E
FC007E
FC007E
FE00FE
7F01FC
7F83FC
3FFFF8
3FFFF8
1FFFF0
0FFFE0
03FF80
00FE00
ENDCHAR
STARTCHAR 0070
ENCODING 112
SWIDTH 439 0
DWIDTH 29 0
BBX 23 47 3 -12
BITMAP
FCFE00
FFFF80
FFFFE0
FFFFF0
FFFFF8
FFFFF8
FF83FC
FF01FC
FE00FE
FC007E
FC007E
FC007E
FC007E
FC007E
FC007E
FC007E
FC007E
FC007E
FC007E
FC007E
FC007E
FC007E
FC007E
FC007E
FC007E
FC007E
FE00FE
FF01FC
FF83FC
FFFFF8
FFFFF8
FFFFF0
FFFFE0
FFFF80
FCFE00
FC0000
FC0000
FC0000
FC0000
FC0000
FC0000
FC0000
FC0000
FC0000
FC0000
FC0000
FC0000
ENDCHAR
STARTCHAR 0071
ENCODING 113
SWIDTH 439 0
DWIDTH 29 0
BBX 23 47 3 -12
BITMAP
00FE7E
03FFFE
0FFFFE
1FFFFE
3FFFFE
3FFFFE
7F83FE
7F01FE
FE00FE
FC007E
FC007E
FC007E
FC007E
FC007E
FC007E
FC007E
FC007E
FC007E
FC007E
FC007E
FC007E
FC007E
FC007E
FC007E
FC007E
FC007E
FE00FE
7F01FE
7F83FE
3FFFFE
3FFFFE
1FFFFE
0FFFFE
03FFFE
00FE7E
00007E
00007E
00007E
00007E
00007E
00007E
00007E
00007E
00007E
00007E
00007E
00007E
ENDCHAR
STARTCHAR 0072
ENCODING 114
SWIDTH 363 0
DWIDTH 24 0
BBX 18 35 3 0
BITMAP
FCFFC0
FFFFC0
FFFFC0
FFFFC0
FFFFC0
FFFFC0
FFCFC0
FF0FC0
FE0FC0
FC0000
FC0000
FC0000
FC0000
FC0000
FC0000
FC0000
FC0000
FC0000
FC0000
FC0000
FC0000
FC0000
FC0000
FC0000
FC0000
FC0000
FC0000
FC0000
FC0000
FC0000
FC0000
FC0000
FC0000
FC0000
FC0000
ENDCHAR
STARTCHAR 0073
ENCODING 115
SWIDTH 393 0
DWIDTH 26 0
BBX 20 35 3 0
BITMAP
01F800
07FE00
1FFF80
3FFFC0
3FFFC0
7FFFE0
7F0FE0
FE07F0
FC03F0
FC03F0
FC03F0
FC0000
FE0000
7F0000
7FF800
3FFE00
3FFF00
1FFF80
07FFC0
01FFE0
000FE0
0007F0
0003F0
FC03F0
FC03F0
FC03F0
FC03F0
FE07F0
7F0FE0
7FFFE0
3FFFC0
3FFF80
1FFF80
07FE00
01F800
ENDCHAR
STARTCHAR 0074
ENCODING 116
SWIDTH 287 0
DWIDTH 19 0
BBX 15 47 2 0
BITMAP
1F80
1F80
1F80
1F80
1F80
1F80
1F80
1F80
1F80
1F80
1F80
1F80
FFFE
FFFE
FFFE
FFFE
FFFE
FFFE
1F80
1F80
1F80
1F80
1F80
1F80
1F80
1F80
1F80
1F80
1F80
1F80
1F80
1F80
1F80
1F80
1F80
1F80
1F80
1F80
1F80
1F80
1FC0
0FFE
0FFE
07FE
03FE
01FE
007E
ENDCHAR
STARTCHAR 0075
ENCODING 117
SWIDTH 439 0
DWIDTH 29 0
BBX 23 35 3 0
BITMAP
FC007E
FC007E
FC007E
FC007E
FC007E
FC007E
FC007E
FC007E
FC007E
FC007E
FC007E
FC007E
FC007E
FC007E
FC007E
FC007E
FC007E
FC007E
FC007E
FC007E
FC007E
FC007E
FC007E
FC007E
FC007E
FC007E
FE00FE
7F01FE
7F83FE
3FFFFE
3FFFFE
1FFFFE
0FFFFE
03FFFE
00FE7E
ENDCHAR
STARTCHAR 0076
ENCODING 118
SWIDTH 454 0
DWIDTH 30 0
BBX 23 35 3 0
BITMAP
FC003E
FC007E
7E007E
7E007E
7E007E
7E007C
7E00FC
3F00FC
3F00FC
3F00FC
3F00F8
3F01F8
1F81F8
1F81F8
1F81F8
1F81F0
1F83F0
0FC3F0
0FC3F0
0FC3F0
0FC3E0
0FC7E0
07E7E0
07E7E0
07E7E0
07E7C0
07EFC0
03FFC0
03FFC0
03FFC0
03FF80
03FF80
01FF80
01FF80
01FF80
ENDCHAR
STARTCHAR 0077
ENCODING 119
SWIDTH 712 0
DWIDTH 47 0
BBX 41 35 3 0
BITMAP
FC007F001F80
FC007F001F80
7C007F001F00
7E007F003F00
7E007F003F00
7E00FF803F00
7E00FF803F00
3E00FF803E00
3F00FF807E00
3F00FF807E00
3F01FFC07E00
3F01FFC07E00
1F01FFC07C00
1F81FFC0FC00
1F81FFC0FC00
1F83F7E0FC00
1F83F7E0FC00
0F83F7E0F800
0FC3F7E1F800
0FC3F7E1F800
0FC7E3F1F800
0FC7E3F1F800
07C7E3F1F000
07E7E3F3F000
07E7E3F3F000
07EFC1FBF000
07EFC1FBF000
03EFC1FBE000
03FFC1FFE000
03FFC1FFE000
03FF80FFE000
03FF80FFE000
01FF80FFC000
01FF80FFC000
01FF80FFC000
ENDCHAR
STARTCHAR 0078
ENCODING 120
SWIDTH 454 0
DWIDTH 30 0
BBX 23 35 3 0
BITMAP
FC007E
7E007E
7E00FC
3F00FC
3F01F8
1F81F8
1F83F0
0FC3F0
0FC7E0
07E7E0
07EFC0
03FFC0
03FF80
01FF80
01FF00
00FF00
00FE00
007E00
00FE00
00FF00
01FF00
01FF80
03FF80
03FFC0
07EFC0
07E7E0
0FC7E0
0FC3F0
1F83F0
1F81F8
3F01F8
3F00FC
7E00FC
7E007E
FC007E
ENDCHAR
STARTCHAR 0079
ENCODING 121
SWIDTH 454 0
DWIDTH 30 0
BBX 23 47 3 -12
BITMAP
1F007E
1F807E
1F807E
1F807E
1F807E
0F80FC
0FC0FC
0FC0FC
0FC0FC
0FC0FC
07C1F8
07E1F8
07E1F8
07E1F8
07E1F8
03E3F0
03F3F0
03F3F0
03F3F0
03F3F0
01F7E0
01FFE0
01FFE0
01FFE0
01FFE0
00FFC0
00FFC0
00FFC0
00FFC0
00FFC0
007F80
007F80
007F80
007F80
007F80
003F00
003F00
003F00
003F00
003F00
187E00
3FFE00
7FFE00
FFFC00
7FF800
3FF000
0FC000
ENDCHAR
STARTCHAR 007A
ENCODING 122
SWIDTH 439 0
DWIDTH 29 0
BBX 23 35 3 0
BITMAP
FFFFFE
FFFFFE
FFFFFE
FFFFFE
FFFFFE
FFFFFE
0001FE
0001FC
0003F8
0007F8
0007F0
000FE0
001FC0
001FC0
003F80
007F00
007F00
00FE00
01FC00
01FC00
03F800
07F000
0FF000
0FE000
1FC000
3FC000
3F8000
7F0000
FF0000
FFFFFE
FFFFFE
FFFFFE
FFFFFE
FFFFFE
FFFFFE
ENDCHAR
STARTCHAR 007B
ENCODING 123
SWIDTH 439 0
DWIDTH 29 0
BBX 16 53 7 -5
BITMAP
000F
003F
007F
00FF
01FF
03FF
03F8
07F0
07E0
07E0
07E0
07E0
07E0
07E0
07E0
07E0
07E0
07E0
07E0
07E0
07E0
0FC0
1FC0
3F80
FF80
FE00
F800
FC00
FF00
FF80
3FC0
0FC0
0FE0
07E0
07E0
07E0
07E0
07E0
07E0
07E0
07E0
07E0
07E0
07E0
07E0
07F0
03F8
03FF
01FF
01FF
00FF
003F
000F
ENDCHAR
STARTCHAR 007C
ENCODING 124
SWIDTH 454 0
DWIDTH 30 0
BBX 6 58 12 -6
BITMAP
FC
FC
FC
FC
FC
FC
FC
FC
FC
FC
FC
FC
FC
FC
FC
FC
FC
FC
FC
FC
FC
FC
FC
FC
FC
FC
FC
FC
FC
FC
FC
FC
FC
FC
FC
FC
FC
FC
FC
FC
FC
FC
FC
FC
FC
FC
FC
FC
FC
FC
FC
FC
FC
FC
FC
FC
FC
FC
ENDCHAR
STARTCHAR 007D
ENCODING 125
SWIDTH 439 0
DWIDTH 29 0
BBX 16 53 7 -5
BITMAP
E000
F800
FE00
FF00
FF80
FF80
3FC0
1FC0
0FE0
07E0
07E0
07E0
07E0
07E0
07E0
07E0
07E0
07E0
07E0
07E0
07E0
07F0
03F0
03F8
01FF
00FF
003F
003F
00FF
01FF
03F8
03F0
07E0
07E0
07E0
07E0
07E0
07E0
07E0
07E0
07E0
07E0
07E0
07E0
0FE0
0FC0
3FC0
FFC0
FF80
FF00
FE00
FC00
E000
ENDCHAR
STARTCHAR 007E
ENCODING 126
SWIDTH 454 0
DWIDTH 30 0
BBX 25 8 2 13
BITMAP
04000000
7C0FF800
FFFFFE00
7FFFFF00
7FFFFF80
3FFFFF80
1FFF3F80
07F80F00
ENDCHAR
STARTCHAR 007F
ENCODING 127
SWIDTH 454 0
DWIDTH 30 0
BBX 0 0 0 0
BITMAP
ENDCHAR
STARTCHAR 0080
ENCODING 128
SWIDTH 454 0
DWIDTH 30 0
BBX 0 0 0 0
BITMAP
ENDCHAR
STARTCHAR 0081
ENCODING 129
SWIDTH 454 0
DWIDTH 30 0
BBX 0 0 0 0
BITMAP
ENDCHAR
STARTCHAR 0082
ENCODING 130
SWIDTH 454 0
DWIDTH 30 0
BBX 0 0 0 0
BITMAP
ENDCHAR
STARTCHAR 0083
ENCODING 131
SWIDTH 454 0
DWIDTH 30 0
BBX 0 0 0 0
BITMAP
ENDCHAR
STARTCHAR 0084
ENCODING 132
SWIDTH 454 0
DWIDTH 30 0
BBX 0 0 0 0
BITMAP
ENDCHAR
STARTCHAR 0085
ENCODING 133
SWIDTH 454 0
DWIDTH 30 0
BBX 0 0 0 0
BITMAP
ENDCHAR
STARTCHAR 0086
ENCODING 134
SWIDTH 454 0
DWIDTH 30 0
BBX 0 0 0 0
BITMAP
ENDCHAR
STARTCHAR 0087
ENCODING 135
SWIDTH 454 0
DWIDTH 30 0
BBX 0 0 0 0
BITMAP
ENDCHAR
STARTCHAR 0088
ENCODING 136
SWIDTH 454 0
DWIDTH 30 0
BBX 0 0 0 0
BITMAP
ENDCHAR
STARTCHAR 0089
ENCODING 137
SWIDTH 454 0
DWIDTH 30 0
BBX 0 0 0 0
BITMAP
ENDCHAR
STARTCHAR 008A
ENCODING 138
SWIDTH 454 0
DWIDTH 30 0
BBX 0 0 0 0
BITMAP
ENDCHAR
STARTCHAR 008B
ENCODING 139
SWIDTH 454 0
DWIDTH 30 0
BBX 0 0 0 0
BITMAP
ENDCHAR
STARTCHAR 008C
ENCODING 140
SWIDTH 454 0
DWIDTH 30 0
BBX 0 0 0 0
BITMAP
ENDCHAR
STARTCHAR 008D
ENCODING 141
SWIDTH 454 0
DWIDTH 30 0
BBX 0 0 0 0
BITMAP
ENDCHAR
STARTCHAR 008E
ENCODING 142
SWIDTH 454 0
DWIDTH 30 0
BBX 0 0 0 0
BITMAP
ENDCHAR
STARTCHAR 008F
ENCODING 143
SWIDTH 454 0
DWIDTH 30 0
BBX 0 0 0 0
BITMAP
ENDCHAR
STARTCHAR 0090
ENCODING 144
SWIDTH 454 0
DWIDTH 30 0
BBX 0 0 0 0
BITMAP
ENDCHAR
STARTCHAR 0091
ENCODING 145
SWIDTH 454 0
DWIDTH 30 0
BBX 0 0 0 0
BITMAP
ENDCHAR
STARTCHAR 0092
ENCODING 146
SWIDTH 454 0
DWIDTH 30 0
BBX 0 0 0 0
BITMAP
ENDCHAR
STARTCHAR 0093
ENCODING 147
SWIDTH 454 0
DWIDTH 30 0
BBX 0 0 0 0
BITMAP
ENDCHAR
STARTCHAR 0094
ENCODING 148
SWIDTH 454 0
DWIDTH 30 0
BBX 0 0 0 0
BITMAP
ENDCHAR
STARTCHAR 0095
ENCODING 149
SWIDTH 454 0
DWIDTH 30 0
BBX 0 0 0 0
BITMAP
ENDCHAR
STARTCHAR 0096
ENCODING 150
SWIDTH 454 0
DWIDTH 30 0
BBX 0 0 0 0
BITMAP
ENDCHAR
STARTCHAR 0097
ENCODING 151
SWIDTH 454 0
DWIDTH 30 0
BBX 0 0 0 0
BITMAP
ENDCHAR
STARTCHAR 0098
ENCODING 152
SWIDTH 454 0
DWIDTH 30 0
BBX 0 0 0 0
BITMAP
ENDCHAR
STARTCHAR 0099
ENCODING 153
SWIDTH 454 0
DWIDTH 30 0
BBX 0 0 0 0
BITMAP
ENDCHAR
STARTCHAR 009A
ENCODING 154
SWIDTH 454 0
DWIDTH 30 0
BBX 0 0 0 0
BITMAP
ENDCHAR
STARTCHAR 009B
ENCODING 155
SWIDTH 454 0
DWIDTH 30 0
BBX 0 0 0 0
BITMAP
ENDCHAR
STARTCHAR 009C
ENCODING 156
SWIDTH 454 0
DWIDTH 30 0
BBX 0 0 0 0
BITMAP
ENDCHAR
STARTCHAR 009D
ENCODING 157
SWIDTH 454 0
DWIDTH 30 0
BBX 0 0 0 0
BITMAP
ENDCHAR
STARTCHAR 009E
ENCODING 158
SWIDTH 454 0
DWIDTH 30 0
BBX 0 0 0 0
BITMAP
ENDCHAR
STARTCHAR 009F
ENCODING 159
SWIDTH 454 0
DWIDTH 30 0
BBX 0 0 0 0
BITMAP
ENDCHAR
STARTCHAR 00A0
ENCODING 160
SWIDTH 454 0
DWIDTH 30 0
BBX 0 0 0 0
BITMAP
ENDCHAR
STARTCHAR 00A1
ENCODING 161
SWIDTH 454 0
DWIDTH 30 0
BBX 0 0 0 0
BITMAP
ENDCHAR
STARTCHAR 00A2
ENCODING 162
SWIDTH 454 0
DWIDTH 30 0
BBX 0 0 0 0
BITMAP
ENDCHAR
STARTCHAR 00A3
ENCODING 163
SWIDTH 454 0
DWIDTH 30 0
BBX 23 47 3 0
BITMAP
003F00
00FFC0
01FFF0
03FFF8
07FFFC
0FFFFC
0FE1FE
1FC07E
1F807E
1F803E
1F8000
1F8000
1F8000
1F8000
1F8000
1F8000
1F8000
1F8000
1F8000
1F8000
1F8000
FFFF00
FFFF00
FFFF00
FFFF00
FFFF00
FFFF00
1F8000
1F8000
1F8000
1F8000
1F8000
1F8000
1F8000
1F8000
1F8000
1F8000
1F8000
1F8000
1F8000
3F8000
FFFFFE
FFFFFE
FFFFFE
FFFFFE
FFFFFE
FFFFFE
ENDCHAR
STARTCHAR 00A4
ENCODING 164
SWIDTH 454 0
DWIDTH 30 0
BBX 0 0 0 0
BITMAP
ENDCHAR
STARTCHAR 00A5
ENCODING 165
SWIDTH 454 0
DWIDTH 30 0
BBX 0 0 0 0
BITMAP
ENDCHAR
STARTCHAR 00A6
ENCODING 166
SWIDTH 454 0
DWIDTH 30 0
BBX 0 0 0 0
BITMAP
ENDCHAR
STARTCHAR 00A7
ENCODING 167
SWIDTH 803 0
DWIDTH 53 0
BBX 47 35 3 0
BITMAP
0007F0003F80
0007E0007F00
000FE0007F00
000FC000FE00
001FC000FC00
003FC001FC00
003FC003FE00
007FE003FF00
007FE007FF00
00FFF007FF80
00FFF00FFF80
01FFF80FDFC0
03F9F81FCFE0
03F8FC1F8FE0
07F0FE3F07F0
07F07E7F07F0
0FE07F7E03F8
1FC03FFE01F8
1FC03FFC01FC
3F801FF800FC
3F801FF800FE
7F800FF8007E
FF800FF8007E
FF800FF8007E
FF800FF8007E
FF800FF8007E
FFC01FFC00FE
FFE03FFE01FC
FFF07F7F03FC
E7FFFF7FFFF8
E7FFFE3FFFF8
C3FFFC1FFFF0
C1FFF80FFFE0
807FF007FF80
001FC000FE00
ENDCHAR
STARTCHAR 00A8
ENCODING 168
SWIDTH 454 0
DWIDTH 30 0
BBX 0 0 0 0
BITMAP
ENDCHAR
STARTCHAR 00A9
ENCODING 169
SWIDTH 712 0
DWIDTH 47 0
BBX 41 47 3 0
BITMAP
0000FF800000
0007FFF00000
001FFFFC0000
007FFFFF0000
00FFFFFF8000
01FFFFFFC000
03FF007FE000
07FC001FF000
0FF00007F800
1FE00003FC00
1FC03E01FC00
3F81FF80FE00
3F03FFE07E00
7F07FFF07F00
7E0FFFF83F00
7E1FFFF83F00
FC1FC3FC3F00
FC1F80FC1F80
FC3F007E1F80
FC3F007E1F80
FC00007E1F80
FC00007E1F80
FC00007E1F80
FC00007E1F80
FC00007E1F80
FC00007E1F80
FC00007E1F80
FC3F007E1F80
FC3F007E1F80
FC1F80FC1F80
FC1FC1FC3F00
7E1FFFFC3F00
7E0FFFF83F00
7F07FFF07F00
3F03FFE07E00
3F81FFC0FE00
1FC03E01FC00
1FE00003FC00
0FF00007F800
07FC001FF000
03FF007FE000
03FFFFFFC000
00FFFFFF8000
007FFFFF0000
001FFFFC0000
0007FFF00000
0000FF800000
ENDCHAR
STARTCHAR 00AA
ENCODING 170
SWIDTH 454 0
DWIDTH 30 0
BBX 0 0 0 0
BITMAP
ENDCHAR
STARTCHAR 00AB
ENCODING 171
SWIDTH 454 0
DWIDTH 30 0
BBX 23 23 4 11
BITMAP
003006
00F01E
01F03E
03F07E
07F0FE
1FE3FC
3F87F8
7F0FE0
FE1FC0
FC1F80
F01F00
F01E00
F81F80
FC1FC0
FF1FE0
3F87F0
1FC3F8
0FE1FC
07F0FE
01F03E
00F01E
00700E
003006
ENDCHAR
STARTCHAR 00AC
ENCODING 172
SWIDTH 454 0
DWIDTH 30 0
BBX 0 0 0 0
BITMAP
ENDCHAR
STARTCHAR 00AD
ENCODING 173
SWIDTH 454 0
DWIDTH 30 0
BBX 0 0 0 0
BITMAP
ENDCHAR
STARTCHAR 00AE
ENCODING 174
SWIDTH 454 0
DWIDTH 30 0
BBX 0 0 0 0
BITMAP
ENDCHAR
STARTCHAR 00AF
ENCODING 175
SWIDTH 454 0
DWIDTH 30 0
BBX 0 0 0 0
BITMAP
ENDCHAR
STARTCHAR 00B0
ENCODING 176
SWIDTH 257 0
DWIDTH 17 0
BBX 10 10 3 43
BITMAP
1E00
7F80
7F80
F3C0
E1C0
E1C0
F3C0
7F80
7F80
1E00
ENDCHAR
STARTCHAR 00B1
ENCODING 177
SWIDTH 454 0
DWIDTH 30 0
BBX 0 0 0 0
BITMAP
ENDCHAR
STARTCHAR 00B2
ENCODING 178
SWIDTH 454 0
DWIDTH 30 0
BBX 0 0 0 0
BITMAP
ENDCHAR
STARTCHAR 00B3
ENCODING 179
SWIDTH 454 0
DWIDTH 30 0
BBX 0 0 0 0
BITMAP
ENDCHAR
STARTCHAR 00B4
ENCODING 180
SWIDTH 454 0
DWIDTH 30 0
BBX 0 0 0 0
BITMAP
ENDCHAR
STARTCHAR 00B5
ENCODING 181
SWIDTH 439 0
DWIDTH 29 0
BBX 23 44 3 -9
BITMAP
FC007E
FC007E
FC007E
FC007E
FC007E
FC007E
FC007E
FC007E
FC007E
FC007E
FC007E
FC007E
FC007E
FC007E
FC007E
FC007E
FC007E
FC007E
FC007E
FC007E
FC007E
FC007E
FC007E
FC007E
FC007E
FC007E
FE00FE
FF01FE
FF83FE
FFFFFE
FFFFFE
FFFFFE
FFFFFE
FFFFFE
FCFE7E
FC0000
FC0000
FC0000
FC0000
FC0000
FC0000
FC0000
FC0000
FC0000
ENDCHAR
STARTCHAR 00B6
ENCODING 182
SWIDTH 454 0
DWIDTH 30 0
BBX 0 0 0 0
BITMAP
ENDCHAR
STARTCHAR 00B7
ENCODING 183
SWIDTH 454 0
DWIDTH 30 0
BBX 0 0 0 0
BITMAP
ENDCHAR
STARTCHAR 00B8
ENCODING 184
SWIDTH 454 0
DWIDTH 30 0
BBX 0 0 0 0
BITMAP
ENDCHAR
STARTCHAR 00B9
ENCODING 185
SWIDTH 454 0
DWIDTH 30 0
BBX 0 0 0 0
BITMAP
ENDCHAR
STARTCHAR 00BA
ENCODING 186
SWIDTH 454 0
DWIDTH 30 0
BBX 0 0 0 0
BITMAP
ENDCHAR
STARTCHAR 00BB
ENCODING 187
SWIDTH 454 0
DWIDTH 30 0
BBX 23 24 4 10
BITMAP
801000
C01800
E01C00
F01E00
FC1F80
FE1FC0
7F0FE0
3F87F0
1FE3FC
0FF1FE
07F07E
01F03E
01F01E
03F07E
07F0FE
0FE1FC
3FC3F8
7F8FF0
FE1FC0
FC1F80
F81F00
F01E00
C01800
801000
ENDCHAR
STARTCHAR 00BC
ENCODING 188
SWIDTH 454 0
DWIDTH 30 0
BBX 0 0 0 0
BITMAP
ENDCHAR
STARTCHAR 00BD
ENCODING 189
SWIDTH 454 0
DWIDTH 30 0
BBX 0 0 0 0
BITMAP
ENDCHAR
STARTCHAR 00BE
ENCODING 190
SWIDTH 454 0
DWIDTH 30 0
BBX 0 0 0 0
BITMAP
ENDCHAR
STARTCHAR 00BF
ENCODING 191
SWIDTH 454 0
DWIDTH 30 0
BBX 0 0 0 0
BITMAP
ENDCHAR
STARTCHAR 00C0
ENCODING 192
SWIDTH 454 0
DWIDTH 30 0
BBX 23 56 3 0
BITMAP
01F000
00F800
00FC00
007C00
003E00
001F00
000F00
000F80
0007C0
000000
007E00
007E00
007E00
00FE00
00FF00
00FF00
00FF00
00FF00
01FF00
01FF00
01FF80
01FF80
01FF80
03FF80
03FF80
03FFC0
03FFC0
03EFC0
07EFC0
07EFC0
07E7E0
07E7E0
07C7E0
0FC7E0
0FC7E0
0FC3E0
0FC3F0
0FC3F0
0F83F0
1F83F0
1F83F0
1FFFF8
1FFFF8
1FFFF8
3FFFF8
3FFFF8
3FFFFC
3E00FC
3E00FC
7E00FC
7E007C
7E007C
7E007E
7C007E
FC007E
FC007E
ENDCHAR
STARTCHAR 00C1
ENCODING 193
SWIDTH 454 0
DWIDTH 30 0
BBX 23 56 3 0
BITMAP
000FC0
001F80
001F00
003E00
007E00
007C00
00F800
01F000
01E000
000000
007E00
007E00
007E00
00FE00
00FF00
00FF00
00FF00
00FF00
01FF00
01FF00
01FF80
01FF80
01FF80
03FF80
03FF80
03FFC0
03FFC0
03EFC0
07EFC0
07EFC0
07E7E0
07E7E0
07C7E0
0FC7E0
0FC7E0
0FC3E0
0FC3F0
0FC3F0
0F83F0
1F83F0
1F83F0
1FFFF8
1FFFF8
1FFFF8
3FFFF8
3FFFF8
3FFFFC
3E00FC
3E00FC
7E00FC
7E007C
7E007C
7E007E
7C007E
FC007E
FC007E
ENDCHAR
STARTCHAR 00C2
ENCODING 194
SWIDTH 454 0
DWIDTH 30 0
BBX 23 56 3 0
BITMAP
007E00
00FE00
01FF00
01FF80
03EF80
07C7C0
0783E0
0F81F0
1F00F0
000000
007E00
007E00
007E00
00FE00
00FF00
00FF00
00FF00
00FF00
01FF00
01FF00
01FF80
01FF80
01FF80
03FF80
03FF80
03FFC0
03FFC0
03EFC0
07EFC0
07EFC0
07E7E0
07E7E0
07C7E0
0FC7E0
0FC7E0
0FC3E0
0FC3F0
0FC3F0
0F83F0
1F83F0
1F83F0
1FFFF8
1FFFF8
1FFFF8
3FFFF8
3FFFF8
3FFFFC
3E00FC
3E00FC
7E00FC
7E007C
7E007C
7E007E
7C007E
FC007E
FC007E
ENDCHAR
STARTCHAR 00C3
ENCODING 195
SWIDTH 454 0
DWIDTH 30 0
BBX 0 0 0 0
BITMAP
ENDCHAR
STARTCHAR 00C4
ENCODING 196
SWIDTH 439 0
DWIDTH 29 0
BBX 23 56 3 0
BITMAP
018300
07C7C0
07EFC0
07EFC0
07C7C0
03C780
000000
000000
000000
000000
007C00
00FE00
00FE00
00FE00
00FE00
00FE00
01FF00
01FF00
01FF00
01FF00
01FF00
03FF80
03FF80
03FF80
03FF80
03FF80
03FF80
07EFC0
07EFC0
07EFC0
07EFC0
07C7C0
0FC7E0
0FC7E0
0FC7E0
0FC7E0
0F83E0
1F83E0
1F83F0
1F83F0
1F83F0
1FFFF0
1FFFF0
3FFFF8
3FFFF8
3FFFF8
3FFFF8
3E00F8
7E00FC
7E00FC
7E00FC
7E00FC
7C007C
FC007C
FC007E
FC007E
ENDCHAR
STARTCHAR 00C5
ENCODING 197
SWIDTH 454 0
DWIDTH 30 0
BBX 0 0 0 0
BITMAP
ENDCHAR
STARTCHAR 00C6
ENCODING 198
SWIDTH 454 0
DWIDTH 30 0
BBX 40 46 -5 0
BITMAP
0000FFFFFF
0000FFFFFF
0000FFFFFF
0001FFFFFF
0001FFFFFF
0001FFFFFF
0003FFFFFF
0003FFC000
0003FFC000
0007FFC000
0007EFC000
0007EFC000
000FCFC000
000FCFC000
001FCFC000
001F8FC000
001F8FC000
003F8FC000
003F0FC000
003F0FC000
007E0FFFF8
007E0FFFF8
007E0FFFF8
00FC0FFFF8
00FC0FFFF8
00FC0FFFF8
01F80FFFF8
01F80FC000
03F80FC000
03FFFFC000
03FFFFC000
07FFFFC000
07FFFFC000
07FFFFC000
0FFFFFC000
0FFFFFC000
0FC00FC000
1F800FC000
1F800FC000
3F800FFFFF
3F000FFFFF
3F000FFFFF
7F000FFFFF
7E000FFFFF
7E000FFFFF
FE000FFFFF
ENDCHAR
STARTCHAR 00C7
ENCODING 199
SWIDTH 454 0
DWIDTH 30 0
BBX 0 0 0 0
BITMAP
ENDCHAR
STARTCHAR 00C8
ENCODING 200
SWIDTH 439 0
DWIDTH 29 0
BBX 23 56 3 0
BITMAP
01F000
01F800
00FC00
007C00
003E00
001F00
000F00
000F80
0007C0
000000
FFFFFE
FFFFFE
FFFFFE
FFFFFE
FFFFFE
FFFFFE
FC0000
FC0000
FC0000
FC0000
FC0000
FC0000
FC0000
FC0000
FC0000
FC0000
FC0000
FC0000
FC0000
FC0000
FFFFC0
FFFFC0
FFFFC0
FFFFC0
FFFFC0
FFFFC0
FC0000
FC0000
FC0000
FC0000
FC0000
FC0000
FC0000
FC0000
FC0000
FC0000
FC0000
FC0000
FC0000
FC0000
FFFFFE
FFFFFE
FFFFFE
FFFFFE
FFFFFE
FFFFFE
ENDCHAR
STARTCHAR 00C9
ENCODING 201
SWIDTH 439 0
DWIDTH 29 0
BBX 23 56 3 0
BITMAP
000FC0
001F80
001F00
003E00
007C00
007C00
00F800
01F000
01E000
000000
FFFFFE
FFFFFE
FFFFFE
FFFFFE
FFFFFE
FFFFFE
FC0000
FC0000
FC0000
FC0000
FC0000
FC0000
FC0000
FC0000
FC0000
FC0000
FC0000
FC0000
FC0000
FC0000
FFFFC0
FFFFC0
FFFFC0
FFFFC0
FFFFC0
FFFFC0
FC0000
FC0000
FC0000
FC0000
FC0000
FC0000
FC0000
FC0000
FC0000
FC0000
FC0000
FC0000
FC0000
FC0000
FFFFFE
FFFFFE
FFFFFE
FFFFFE
FFFFFE
FFFFFE
ENDCHAR
STARTCHAR 00CA
ENCODING 202
SWIDTH 439 0
DWIDTH 29 0
BBX 23 56 3 0
BITMAP
00FE00
00FF00
01FF00
03FF80
03EFC0
07C7C0
0F83E0
0F01E0
1F00F0
000000
FFFFFE
FFFFFE
FFFFFE
FFFFFE
FFFFFE
FFFFFE
FC0000
FC0000
FC0000
FC0000
FC0000
FC0000
FC0000
FC0000
FC0000
FC0000
FC0000
FC0000
FC0000
FC0000
FFFFC0
FFFFC0
FFFFC0
FFFFC0
FFFFC0
FFFFC0
FC0000
FC0000
FC0000
FC0000
FC0000
FC0000
FC0000
FC0000
FC0000
FC0000
FC0000
FC0000
FC0000
FC0000
FFFFFE
FFFFFE
FFFFFE
FFFFFE
FFFFFE
FFFFFE
ENDCHAR
STARTCHAR 00CB
ENCODING 203
SWIDTH 439 0
DWIDTH 29 0
BBX 23 56 3 0
BITMAP
018300
07C7C0
07EFC0
07EFC0
07C7C0
03C780
000000
000000
000000
000000
FFFFFE
FFFFFE
FFFFFE
FFFFFE
FFFFFE
FFFFFE
FC0000
FC0000
FC0000
FC0000
FC0000
FC0000
FC0000
FC0000
FC0000
FC0000
FC0000
FC0000
FC0000
FC0000
FFFF80
FFFF80
FFFF80
FFFF80
FFFF80
FFFF80
FC0000
FC0000
FC0000
FC0000
FC0000
FC0000
FC0000
FC0000
FC0000
FC0000
FC0000
FC0000
FC0000
FC0000
FFFFFE
FFFFFE
FFFFFE
FFFFFE
FFFFFE
FFFFFE
ENDCHAR
STARTCHAR 00CC
ENCODING 204
SWIDTH 454 0
DWIDTH 30 0
BBX 11 56 10 0
BITMAP
FC00
7C00
3E00
3F00
1F00
0F80
07C0
03C0
01E0
0000
3F00
3F00
3F00
3F00
3F00
3F00
3F00
3F00
3F00
3F00
3F00
3F00
3F00
3F00
3F00
3F00
3F00
3F00
3F00
3F00
3F00
3F00
3F00
3F00
3F00
3F00
3F00
3F00
3F00
3F00
3F00
3F00
3F00
3F00
3F00
3F00
3F00
3F00
3F00
3F00
3F00
3F00
3F00
3F00
3F00
3F00
ENDCHAR
STARTCHAR 00CD
ENCODING 205
SWIDTH 454 0
DWIDTH 30 0
BBX 11 56 10 0
BITMAP
07E0
07C0
0F80
1F80
1F00
3E00
7C00
7800
F800
0000
3F00
3F00
3F00
3F00
3F00
3F00
3F00
3F00
3F00
3F00
3F00
3F00
3F00
3F00
3F00
3F00
3F00
3F00
3F00
3F00
3F00
3F00
3F00
3F00
3F00
3F00
3F00
3F00
3F00
3F00
3F00
3F00
3F00
3F00
3F00
3F00
3F00
3F00
3F00
3F00
3F00
3F00
3F00
3F00
3F00
3F00
ENDCHAR
STARTCHAR 00CE
ENCODING 206
SWIDTH 454 0
DWIDTH 30 0
BBX 16 56 7 0
BITMAP
07E0
0FF0
1FF8
1FF8
3E7C
7C3E
7C3E
F81F
F00F
0000
07E0
07E0
07E0
07E0
07E0
07E0
07E0
07E0
07E0
07E0
07E0
07E0
07E0
07E0
07E0
07E0
07E0
07E0
07E0
07E0
07E0
07E0
07E0
07E0
07E0
07E0
07E0
07E0
07E0
07E0
07E0
07E0
07E0
07E0
07E0
07E0
07E0
07E0
07E0
07E0
07E0
07E0
07E0
07E0
07E0
07E0
ENDCHAR
STARTCHAR 00CF
ENCODING 207
SWIDTH 439 0
DWIDTH 29 0
BBX 13 56 8 0
BITMAP
3060
F8F8
FDF8
FDF8
F8F8
78F0
0000
0000
0000
0000
1F80
1F80
1F80
1F80
1F80
1F80
1F80
1F80
1F80
1F80
1F80
1F80
1F80
1F80
1F80
1F80
1F80
1F80
1F80
1F80
1F80
1F80
1F80
1F80
1F80
1F80
1F80
1F80
1F80
1F80
1F80
1F80
1F80
1F80
1F80
1F80
1F80
1F80
1F80
1F80
1F80
1F80
1F80
1F80
1F80
1F80
ENDCHAR
STARTCHAR 00D0
ENCODING 208
SWIDTH 454 0
DWIDTH 30 0
BBX 0 0 0 0
BITMAP
ENDCHAR
STARTCHAR 00D1
ENCODING 209
SWIDTH 454 0
DWIDTH 30 0
BBX 0 0 0 0
BITMAP
ENDCHAR
STARTCHAR 00D2
ENCODING 210
SWIDTH 439 0
DWIDTH 29 0
BBX 23 56 3 0
BITMAP
01F000
01F800
00FC00
007C00
003E00
001F00
001F00
000F80
000780
000000
00FE00
03FF80
0FFFE0
1FFFF0
3FFFF8
3FFFF8
7F83FC
7F01FC
FE00FE
FC007E
FC007E
FC007E
FC007E
FC007E
FC007E
FC007E
FC007E
FC007E
FC007E
FC007E
FC007E
FC007E
FC007E
FC007E
FC007E
FC007E
FC007E
FC007E
FC007E
FC007E
FC007E
FC007E
FC007E
FC007E
FC007E
FC007E
FC007E
FE00FE
7F01FC
7F83FC
3FFFF8
3FFFF8
1FFFF0
0FFFE0
03FF80
00FE00
ENDCHAR
STARTCHAR 00D3
ENCODING 211
SWIDTH 439 0
DWIDTH 29 0
BBX 23 56 3 0
BITMAP
000F80
001F80
003F00
003E00
007C00
007800
00F800
01F000
01E000
000000
00FE00
03FF80
0FFFE0
1FFFF0
3FFFF8
3FFFF8
7F83FC
7F01FC
FE00FE
FC007E
FC007E
FC007E
FC007E
FC007E
FC007E
FC007E
FC007E
FC007E
FC007E
FC007E
FC007E
FC007E
FC007E
FC007E
FC007E
FC007E
FC007E
FC007E
FC007E
FC007E
FC007E
FC007E
FC007E
FC007E
FC007E
FC007E
FC007E
FE00FE
7F01FC
7F83FC
3FFFF8
3FFFF8
1FFFF0
0FFFE0
03FF80
00FE00
ENDCHAR
STARTCHAR 00D4
ENCODING 212
SWIDTH 439 0
DWIDTH 29 0
BBX 23 56 3 0
BITMAP
00FE00
00FE00
01FF00
03FF80
03EF80
07C7C0
0F83E0
0F01E0
1F01F0
000000
00FE00
03FF80
0FFFE0
1FFFF0
3FFFF8
3FFFF8
7F83FC
7F01FC
FE00FE
FC007E
FC007E
FC007E
FC007E
FC007E
FC007E
FC007E
FC007E
FC007E
FC007E
FC007E
FC007E
FC007E
FC007E
FC007E
FC007E
FC007E
FC007E
FC007E
FC007E
FC007E
FC007E
FC007E
FC007E
FC007E
FC007E
FC007E
FC007E
FE00FE
7F01FC
7F83FC
3FFFF8
3FFFF8
1FFFF0
0FFFE0
03FF80
00FE00
ENDCHAR
STARTCHAR 00D5
ENCODING 213
SWIDTH 439 0
DWIDTH 29 0
BBX 23 46 3 0
BITMAP
00FE00
03FF80
0FFFE0
1FFFF0
3FFFF8
3FFFF8
7F83FC
7F01FC
FE00FE
FC007E
FC007E
FC007E
FC007E
FC007E
FC007E
FC007E
FC007E
FC007E
FC007E
FC007E
FC007E
FC007E
FC007E
FC007E
FC007E
FC007E
FC007E
FC007E
FC007E
FC007E
FC007E
FC007E
FC007E
FC007E
FC007E
FC007E
FC007E
FE00FE
7F01FC
7F83FC
3FFFF8
3FFFF8
1FFFF0
0FFFE0
03FF80
00FE00
ENDCHAR
STARTCHAR 00D6
ENCODING 214
SWIDTH 439 0
DWIDTH 29 0
BBX 23 56 3 0
BITMAP
018300
07C7C0
07EFC0
07EFC0
07C7C0
03C780
000000
000000
000000
000000
00FE00
03FF80
0FFFE0
1FFFF0
3FFFF8
3FFFF8
7F83FC
7F01FC
FE00FE
FC007E
FC007E
FC007E
FC007E
FC007E
FC007E
FC007E
FC007E
FC007E
FC007E
FC007E
FC007E
FC007E
FC007E
FC007E
FC007E
FC007E
FC007E
FC007E
FC007E
FC007E
FC007E
FC007E
FC007E
FC007E
FC007E
FC007E
FC007E
FE00FE
7F01FC
7F83FC
3FFFF8
3FFFF8
1FFFF0
0FFFE0
03FF80
00FE00
ENDCHAR
STARTCHAR 00D7
ENCODING 215
SWIDTH 454 0
DWIDTH 30 0
BBX 0 0 0 0
BITMAP
ENDCHAR
STARTCHAR 00D8
ENCODING 216
SWIDTH 454 0
DWIDTH 30 0
BBX 0 0 0 0
BITMAP
ENDCHAR
STARTCHAR 00D9
ENCODING 217
SWIDTH 439 0
DWIDTH 29 0
BBX 23 56 3 0
BITMAP
01F000
01F800
00FC00
007C00
003E00
001F00
001F00
000F80
000780
000000
FC007E
FC007E
FC007E
FC007E
FC007E
FC007E
FC007E
FC007E
FC007E
FC007E
FC007E
FC007E
FC007E
FC007E
FC007E
FC007E
FC007E
FC007E
FC007E
FC007E
FC007E
FC007E
FC007E
FC007E
FC007E
FC007E
FC007E
FC007E
FC007E
FC007E
FC007E
FC007E
FC007E
FC007E
FC007E
FC007E
FC007E
FE00FE
7F01FC
7F83FC
3FFFF8
3FFFF8
1FFFF0
0FFFE0
03FF80
00FE00
ENDCHAR
STARTCHAR 00DA
ENCODING 218
SWIDTH 439 0
DWIDTH 29 0
BBX 23 56 3 0
BITMAP
000F80
001F80
003F00
003E00
007C00
007800
00F800
01F000
01E000
000000
FC007E
FC007E
FC007E
FC007E
FC007E
FC007E
FC007E
FC007E
FC007E
FC007E
FC007E
FC007E
FC007E
FC007E
FC007E
FC007E
FC007E
FC007E
FC007E
FC007E
FC007E
FC007E
FC007E
FC007E
FC007E
FC007E
FC007E
FC007E
FC007E
FC007E
FC007E
FC007E
FC007E
FC007E
FC007E
FC007E
FC007E
FE00FE
7F01FC
7F83FC
3FFFF8
3FFFF8
1FFFF0
0FFFE0
03FF80
00FE00
ENDCHAR
STARTCHAR 00DB
ENCODING 219
SWIDTH 439 0
DWIDTH 29 0
BBX 23 56 3 0
BITMAP
00FE00
00FE00
01FF00
03FF80
03EF80
07C7C0
0F83E0
0F01E0
1F01F0
000000
FC007E
FC007E
FC007E
FC007E
FC007E
FC007E
FC007E
FC007E
FC007E
FC007E
FC007E
FC007E
FC007E
FC007E
FC007E
FC007E
FC007E
FC007E
FC007E
FC007E
FC007E
FC007E
FC007E
FC007E
FC007E
FC007E
FC007E
FC007E
FC007E
FC007E
FC007E
FC007E
FC007E
FC007E
FC007E
FC007E
FC007E
FE00FE
7F01FC
7F83FC
3FFFF8
3FFFF8
1FFFF0
0FFFE0
03FF80
00FE00
ENDCHAR
STARTCHAR 00DC
ENCODING 220
SWIDTH 439 0
DWIDTH 29 0
BBX 23 56 3 0
BITMAP
018300
07C7C0
07EFC0
07EFC0
07C7C0
03C780
000000
000000
000000
000000
FC007E
FC007E
FC007E
FC007E
FC007E
FC007E
FC007E
FC007E
FC007E
FC007E
FC007E
FC007E
FC007E
FC007E
FC007E
FC007E
FC007E
FC007E
FC007E
FC007E
FC007E
FC007E
FC007E
FC007E
FC007E
FC007E
FC007E
FC007E
FC007E
FC007E
FC007E
FC007E
FC007E
FC007E
FC007E
FC007E
FC007E
FE00FE
7F01FC
7F83FC
3FFFF8
3FFFF8
1FFFF0
0FFFE0
03FF80
00FE00
ENDCHAR
STARTCHAR 00DD
ENCODING 221
SWIDTH 454 0
DWIDTH 30 0
BBX 0 0 0 0
BITMAP
ENDCHAR
STARTCHAR 00DE
ENCODING 222
SWIDTH 454 0
DWIDTH 30 0
BBX 0 0 0 0
BITMAP
ENDCHAR
STARTCHAR 00DF
ENCODING 223
SWIDTH 439 0
DWIDTH 29 0
BBX 23 47 3 0
BITMAP
01FC00
07FF00
0FFF80
1FFFC0
3FFFE0
7FFFF0
7F07F0
FE03F0
FC01F8
FC01F8
FC01F8
FC01F8
FC03F8
FC03F0
FC0FF0
FC7FE0
FC7FC0
FC7FE0
FC7FF0
FC7FF8
FC7FF8
FC03FC
FC01FC
FC00FE
FC007E
FC007E
FC007E
FC007E
FC007E
FC007E
FC007E
FC007E
FC007E
FC007E
FC007E
FC007E
FC007E
FC007E
FC00FE
FC01FC
FC03FC
FC7FF8
FC7FF8
FC7FF0
FC7FE0
FC7F80
FC7E00
ENDCHAR
STARTCHAR 00E0
ENCODING 224
SWIDTH 500 0
DWIDTH 33 0
BBX 27 47 3 0
BITMAP
03F00000
01F00000
00F80000
007C0000
007C0000
003E0000
001F0000
000F0000
00078000
00000000
00000000
00000000
00FF0000
03FFC000
07FFE000
0FFFF000
1FFFF800
3FFFFC00
3F81FC00
3F00FE00
7E007E00
7E007E00
7E007E00
7E007E00
00007E00
00007E00
0000FE00
01FFFE00
07FFFE00
1FFFFE00
3FFFFE00
3FFFFE00
7FFFFE00
7F007E00
FE007E00
FC007E00
FC007E00
FC007E00
FC007E00
FE00FE00
7F01FF00
7FFFFFE0
3FFFFFE0
3FFFFFE0
1FFFFFE0
07FFC7E0
01FF01E0
ENDCHAR
STARTCHAR 00E1
ENCODING 225
SWIDTH 500 0
DWIDTH 33 0
BBX 27 47 3 0
BITMAP
001F8000
001F0000
003F0000
003E0000
007C0000
00F80000
00F00000
01E00000
03C00000
00000000
00000000
00000000
00FF0000
03FFC000
07FFE000
0FFFF000
1FFFF800
3FFFFC00
3F81FC00
3F00FE00
7E007E00
7E007E00
7E007E00
7E007E00
00007E00
00007E00
0000FE00
01FFFE00
07FFFE00
1FFFFE00
3FFFFE00
3FFFFE00
7FFFFE00
7F007E00
FE007E00
FC007E00
FC007E00
FC007E00
FC007E00
FE00FE00
7F01FF00
7FFFFFE0
3FFFFFE0
3FFFFFE0
1FFFFFE0
07FFC7E0
01FF01E0
ENDCHAR
STARTCHAR 00E2
ENCODING 226
SWIDTH 500 0
DWIDTH 33 0
BBX 27 47 3 0
BITMAP
01FC0000
01FC0000
03FE0000
07FF0000
07DF0000
0F8F8000
1F07C000
1E03C000
3E03E000
00000000
00000000
00000000
00FF0000
03FFC000
07FFE000
0FFFF000
1FFFF800
3FFFFC00
3F81FC00
3F00FE00
7E007E00
7E007E00
7E007E00
7E007E00
00007E00
00007E00
0000FE00
01FFFE00
07FFFE00
1FFFFE00
3FFFFE00
3FFFFE00
7FFFFE00
7F007E00
FE007E00
FC007E00
FC007E00
FC007E00
FC007E00
FE00FE00
7F01FF00
7FFFFFE0
3FFFFFE0
3FFFFFE0
1FFFFFE0
07FFC7E0
01FF01E0
ENDCHAR
STARTCHAR 00E3
ENCODING 227
SWIDTH 454 0
DWIDTH 30 0
BBX 0 0 0 0
BITMAP
ENDCHAR
STARTCHAR 00E4
ENCODING 228
SWIDTH 500 0
DWIDTH 33 0
BBX 27 45 3 0
BITMAP
01830000
07C7C000
07EFC000
07EFC000
07C7C000
03C78000
00000000
00000000
00000000
00000000
00FF0000
03FFC000
07FFE000
0FFFF000
1FFFF800
3FFFFC00
3F81FC00
3F00FE00
7E007E00
7E007E00
7E007E00
7E007E00
00007E00
00007E00
0000FE00
01FFFE00
07FFFE00
1FFFFE00
3FFFFE00
3FFFFE00
7FFFFE00
7F007E00
FE007E00
FC007E00
FC007E00
FC007E00
FC007E00
FE00FE00
7F01FF00
7FFFFFE0
3FFFFFE0
3FFFFFE0
1FFFFFE0
07FFC7E0
01FF01E0
ENDCHAR
STARTCHAR 00E5
ENCODING 229
SWIDTH 454 0
DWIDTH 30 0
BBX 0 0 0 0
BITMAP
ENDCHAR
STARTCHAR 00E6
ENCODING 230
SWIDTH 621 0
DWIDTH 41 0
BBX 35 35 3 0
BITMAP
01F807F000
07FE1FFC00
1FFF3FFE00
3FFFFFFF00
3FFFFFFF80
7FFFFFFFC0
7F0FFC1FC0
FE07F80FE0
FC03F007E0
FC03F007E0
0003F007E0
0003F007E0
0003F007E0
0003F007E0
03FFFFFFE0
0FFFFFFFE0
1FFFFFFFE0
3FFFFFFFE0
7FFFFFFFE0
7FFFFFFFE0
FE03F00000
FC03F00000
FC03F00000
FC03F00000
FC03F00000
FC03F007E0
FC07F007E0
FC0FF80FE0
FE1FFC1FC0
7FFFFFFFC0
7FFFFFFF80
3FFFFFFF00
1FFF3FFE00
0FFC1FFC00
03F007F000
ENDCHAR
STARTCHAR 00E7
ENCODING 231
SWIDTH 439 0
DWIDTH 29 0
BBX 23 44 3 -9
BITMAP
00FE00
03FF80
0FFFE0
1FFFF0
3FFFF8
3FFFF8
7F83FC
7F01FC
FE00FE
FC007E
FC007E
FC007E
FC0000
FC0000
FC0000
FC0000
FC0000
FC0000
FC0000
FC0000
FC0000
FC0000
FC0000
FC007E
FC007E
FC007E
FE00FE
7E00FC
7F83FC
3FFFF8
3FFFF8
1FFFF0
0FFFE0
03FFC0
00FE00
007E00
007E00
007E00
0FFE00
0FFE00
0FFE00
0FFE00
0FFC00
0FF800
ENDCHAR
STARTCHAR 00E8
ENCODING 232
SWIDTH 439 0
DWIDTH 29 0
BBX 23 47 3 0
BITMAP
03F000
01F000
00F800
007C00
007C00
003E00
001F00
000F00
000780
000000
000000
000000
00FE00
03FF80
0FFFE0
1FFFF0
3FFFF8
3FFFF8
7F83FC
7F01FC
FE00FE
FC007E
FC007E
FC007E
FC007E
FC007E
FC007E
FFFFFE
FFFFFE
FFFFFE
FFFFFE
FFFFFE
FFFFFE
FC0000
FC0000
FC0000
FC0000
FC0000
FE00F0
7E00FC
7F83FC
3FFFF8
3FFFF8
1FFFF0
0FFFE0
03FF80
00FE00
ENDCHAR
STARTCHAR 00E9
ENCODING 233
SWIDTH 439 0
DWIDTH 29 0
BBX 23 47 3 0
BITMAP
001F80
001F00
003E00
007C00
007C00
00F800
01F000
01E000
03E000
000000
000000
000000
00FE00
03FF80
0FFFE0
1FFFF0
3FFFF8
3FFFF8
7F83FC
7E00FC
FE00FE
FC007E
FC007E
FC007E
FC007E
FC007E
FFFFFE
FFFFFE
FFFFFE
FFFFFE
FFFFFE
FFFFFE
FC0000
FC0000
FC0000
FC0000
FC0000
FC0040
FE00F0
7F01FC
7F83FC
3FFFF8
3FFFF8
1FFFF0
0FFFE0
03FF80
00FE00
ENDCHAR
STARTCHAR 00EA
ENCODING 234
SWIDTH 439 0
DWIDTH 29 0
BBX 23 47 3 0
BITMAP
00FE00
00FE00
01FF00
03FF80
03EF80
07C7C0
0783E0
0F01E0
1F01F0
000000
000000
000000
00FE00
03FF80
0FFFE0
1FFFF0
3FFFF8
3FFFF8
7F83FC
7E00FC
FE00FE
FC007E
FC007E
FC007E
FC007E
FC007E
FFFFFE
FFFFFE
FFFFFE
FFFFFE
FFFFFE
FFFFFE
FC0000
FC0000
FC0000
FC0000
FC0000
FC0040
FE00F0
7F01FC
7F83FC
3FFFF8
3FFFF8
1FFFF0
0FFFE0
03FF80
00FE00
ENDCHAR
STARTCHAR 00EB
ENCODING 235
SWIDTH 439 0
DWIDTH 29 0
BBX 23 45 3 0
BITMAP
018300
07C7C0
07EFC0
07EFC0
07C7C0
03C780
000000
000000
000000
000000
00FE00
03FF80
0FFFE0
1FFFF0
3FFFF8
3FFFF8
7F83FC
7E00FC
FE00FE
FC007E
FC007E
FC007E
FC007E
FC007E
FFFFFE
FFFFFE
FFFFFE
FFFFFE
FFFFFE
FFFFFE
FC0000
FC0000
FC0000
FC0000
FC0000
FC0040
FE00F0
7F01FC
7F83FC
3FFFF8
3FFFF8
1FFFF0
0FFFE0
03FF80
00FE00
ENDCHAR
STARTCHAR 00EC
ENCODING 236
SWIDTH 257 0
DWIDTH 17 0
BBX 11 47 2 0
BITMAP
FC00
7C00
3E00
3F00
1F00
0F80
07C0
03C0
03E0
0000
0000
0000
3F00
3F00
3F00
3F00
3F00
3F00
3F00
3F00
3F00
3F00
3F00
3F00
3F00
3F00
3F00
3F00
3F00
3F00
3F00
3F00
3F00
3F00
3F00
3F00
3F00
3F00
3F00
3F00
3F80
1FE0
1FE0
0FE0
07E0
03E0
00E0
ENDCHAR
STARTCHAR 00ED
ENCODING 237
SWIDTH 257 0
DWIDTH 17 0
BBX 12 47 3 0
BITMAP
03F0
07E0
0FC0
0F80
1F00
3E00
3E00
7C00
F800
0000
0000
0000
7E00
7E00
7E00
7E00
7E00
7E00
7E00
7E00
7E00
7E00
7E00
7E00
7E00
7E00
7E00
7E00
7E00
7E00
7E00
7E00
7E00
7E00
7E00
7E00
7E00
7E00
7E00
7E00
7F00
3FC0
3FC0
1FC0
0FC0
07C0
01C0
ENDCHAR
STARTCHAR 00EE
ENCODING 238
SWIDTH 257 0
DWIDTH 17 0
BBX 17 47 -1 0
BITMAP
07E000
0FF000
1FF800
1FF800
3E7C00
7C3E00
7C3E00
F81F00
F00F80
000000
000000
000000
07E000
07E000
07E000
07E000
07E000
07E000
07E000
07E000
07E000
07E000
07E000
07E000
07E000
07E000
07E000
07E000
07E000
07E000
07E000
07E000
07E000
07E000
07E000
07E000
07E000
07E000
07E000
07E000
07F000
03FC00
03FC00
01FC00
00FC00
007C00
001C00
ENDCHAR
STARTCHAR 00EF
ENCODING 239
SWIDTH 257 0
DWIDTH 17 0
BBX 13 47 2 0
BITMAP
70F0
F8F8
FDF8
FDF8
F8F8
3070
0000
0000
0000
0000
0000
0000
1F80
1F80
1F80
1F80
1F80
1F80
1F80
1F80
1F80
1F80
1F80
1F80
1F80
1F80
1F80
1F80
1F80
1F80
1F80
1F80
1F80
1F80
1F80
1F80
1F80
1F80
1F80
1F80
1FC0
0FF0
0FF0
07F0
03F0
01F0
0070
ENDCHAR
STARTCHAR 00F0
ENCODING 240
SWIDTH 454 0
DWIDTH 30 0
BBX 0 0 0 0
BITMAP
ENDCHAR
STARTCHAR 00F1
ENCODING 241
SWIDTH 454 0
DWIDTH 30 0
BBX 0 0 0 0
BITMAP
ENDCHAR
STARTCHAR 00F2
ENCODING 242
SWIDTH 439 0
DWIDTH 29 0
BBX 23 56 3 0
BITMAP
07F000
03F000
01F800
00F800
00FC00
007C00
003E00
001F00
001F00
000000
000000
000000
000000
000000
000000
000000
000000
000000
000000
000000
000000
00FE00
03FF80
0FFFE0
1FFFF0
3FFFF8
3FFFF8
7F83FC
7F01FC
FE00FE
FC007E
FC007E
FC007E
FC007E
FC007E
FC007E
FC007E
FC007E
FC007E
FC007E
FC007E
FC007E
FC007E
FC007E
FC007E
FC007E
FC007E
FE00FE
7F01FC
7F83FC
3FFFF8
3FFFF8
1FFFF0
0FFFE0
03FF80
00FE00
ENDCHAR
STARTCHAR 00F3
ENCODING 243
SWIDTH 439 0
DWIDTH 29 0
BBX 23 47 3 0
BITMAP
000F80
001F00
003F00
003E00
007C00
00F800
00F000
01E000
03E000
000000
000000
000000
00FE00
03FF80
0FFFE0
1FFFF0
3FFFF8
3FFFF8
7F83FC
7F01FC
FE00FE
FC007E
FC007E
FC007E
FC007E
FC007E
FC007E
FC007E
FC007E
FC007E
FC007E
FC007E
FC007E
FC007E
FC007E
FC007E
FC007E
FC007E
FE00FE
7F01FC
7F83FC
3FFFF8
3FFFF8
1FFFF0
0FFFE0
03FF80
00FE00
ENDCHAR
STARTCHAR 00F4
ENCODING 244
SWIDTH 439 0
DWIDTH 29 0
BBX 23 47 3 0
BITMAP
00FE00
00FE00
01FF00
03FF80
03EF80
07C7C0
0F83C0
0F01E0
1F01F0
000000
000000
000000
00FE00
03FF80
0FFFE0
1FFFF0
3FFFF8
3FFFF8
7F83FC
7F01FC
FE00FE
FC007E
FC007E
FC007E
FC007E
FC007E
FC007E
FC007E
FC007E
FC007E
FC007E
FC007E
FC007E
FC007E
FC007E
FC007E
FC007E
FC007E
FE00FE
7F01FC
7F83FC
3FFFF8
3FFFF8
1FFFF0
0FFFE0
03FF80
00FE00
ENDCHAR
STARTCHAR 00F5
ENCODING 245
SWIDTH 439 0
DWIDTH 29 0
BBX 23 35 3 0
BITMAP
00FE00
03FF80
0FFFE0
1FFFF0
3FFFF8
3FFFF8
7F83FC
7F01FC
FE00FE
FC007E
FC007E
FC007E
FC007E
FC007E
FC007E
FC007E
FC007E
FC007E
FC007E
FC007E
FC007E
FC007E
FC007E
FC007E
FC007E
FC007E
FE00FE
7F01FC
7F83FC
3FFFF8
3FFFF8
1FFFF0
0FFFE0
03FF80
00FE00
ENDCHAR
STARTCHAR 00F6
ENCODING 246
SWIDTH 439 0
DWIDTH 29 0
BBX 23 45 3 0
BITMAP
018300
07C7C0
07EFC0
07EFC0
07C7C0
03C780
000000
000000
000000
000000
00FE00
03FF80
0FFFE0
1FFFF0
3FFFF8
3FFFF8
7F83FC
7F01FC
FE00FE
FC007E
FC007E
FC007E
FC007E
FC007E
FC007E
FC007E
FC007E
FC007E
FC007E
FC007E
FC007E
FC007E
FC007E
FC007E
FC007E
FC007E
FE00FE
7F01FC
7F83FC
3FFFF8
3FFFF8
1FFFF0
0FFFE0
03FF80
00FE00
ENDCHAR
STARTCHAR 00F7
ENCODING 247
SWIDTH 454 0
DWIDTH 30 0
BBX 18 26 6 5
BITMAP
03C000
03E000
07E000
07E000
03E000
01C000
000000
000000
000000
000000
FFFFC0
FFFFC0
FFFFC0
FFFFC0
FFFFC0
FFFFC0
000000
000000
000000
000000
018000
03E000
07E000
07E000
03E000
03C000
ENDCHAR
STARTCHAR 00F8
ENCODING 248
SWIDTH 439 0
DWIDTH 29 0
BBX 23 47 3 0
BITMAP
00FE7E
03FFFC
0FFFFC
1FFFFC
3FFFF8
3FFFF8
7F83FC
7F03FC
FE03FE
FC03FE
FC07FE
FC07FE
FC07FE
FC0FFE
FC0FFE
FC0FFE
FC1FFE
FC1FFE
FC3F7E
FC3F7E
FC3E7E
FC7E7E
FC7E7E
FC7C7E
FCFC7E
FCFC7E
FCF87E
FDF87E
FDF87E
FFF07E
FFF07E
FFE07E
FFE07E
FFE07E
FFC07E
FFC07E
FFC07E
FF807E
FF80FE
7F81FC
7F83FC
3FFFF8
3FFFF8
7FFFF0
7FFFE0
7FFF80
FCFE00
ENDCHAR
STARTCHAR 00F9
ENCODING 249
SWIDTH 439 0
DWIDTH 29 0
BBX 23 47 3 0
BITMAP
03F000
01F000
00F800
007C00
007C00
003E00
001F00
000F00
000780
000000
000000
000000
FC007E
FC007E
FC007E
FC007E
FC007E
FC007E
FC007E
FC007E
FC007E
FC007E
FC007E
FC007E
FC007E
FC007E
FC007E
FC007E
FC007E
FC007E
FC007E
FC007E
FC007E
FC007E
FC007E
FC007E
FC007E
FC007E
FE00FE
7F01FE
7F83FE
3FFFFE
3FFFFE
1FFFFE
0FFFFE
03FFFE
00FE7E
ENDCHAR
STARTCHAR 00FA
ENCODING 250
SWIDTH 439 0
DWIDTH 29 0
BBX 23 47 3 0
BITMAP
001F80
001F00
003E00
007C00
007C00
00F800
01F000
01E000
03E000
000000
000000
000000
FC007E
FC007E
FC007E
FC007E
FC007E
FC007E
FC007E
FC007E
FC007E
FC007E
FC007E
FC007E
FC007E
FC007E
FC007E
FC007E
FC007E
FC007E
FC007E
FC007E
FC007E
FC007E
FC007E
FC007E
FC007E
FC007E
FE00FE
7F01FE
7F83FE
3FFFFE
3FFFFE
1FFFFE
0FFFFE
03FFFE
00FE7E
ENDCHAR
STARTCHAR 00FB
ENCODING 251
SWIDTH 439 0
DWIDTH 29 0
BBX 23 47 3 0
BITMAP
00FE00
00FE00
01FF00
03FF80
03EF80
07C7C0
0783E0
0F01E0
1F01F0
000000
000000
000000
FC007E
FC007E
FC007E
FC007E
FC007E
FC007E
FC007E
FC007E
FC007E
FC007E
FC007E
FC007E
FC007E
FC007E
FC007E
FC007E
FC007E
FC007E
FC007E
FC007E
FC007E
FC007E
FC007E
FC007E
FC007E
FC007E
FE00FE
7F01FE
7F83FE
3FFFFE
3FFFFE
1FFFFE
0FFFFE
03FFFE
00FE7E
ENDCHAR
STARTCHAR 00FC
ENCODING 252
SWIDTH 439 0
DWIDTH 29 0
BBX 23 45 3 0
BITMAP
018300
07C7C0
07EFC0
07EFC0
07C7C0
03C780
000000
000000
000000
000000
FC007E
FC007E
FC007E
FC007E
FC007E
FC007E
FC007E
FC007E
FC007E
FC007E
FC007E
FC007E
FC007E
FC007E
FC007E
FC007E
FC007E
FC007E
FC007E
FC007E
FC007E
FC007E
FC007E
FC007E
FC007E
FC007E
FE00FE
7F01FE
7F83FE
3FFFFE
3FFFFE
1FFFFE
0FFFFE
03FFFE
00FE7E
ENDCHAR
STARTCHAR 00FD
ENCODING 253
SWIDTH 454 0
DWIDTH 30 0
BBX 0 0 0 0
BITMAP
ENDCHAR
STARTCHAR 00FE
ENCODING 254
SWIDTH 454 0
DWIDTH 30 0
BBX 0 0 0 0
BITMAP
ENDCHAR
STARTCHAR 00FF
ENCODING 255
SWIDTH 454 0
DWIDTH 30 0
BBX 0 0 0 0
BITMAP
ENDCHAR
STARTCHAR 0100
ENCODING 256
SWIDTH 454 0
DWIDTH 30 0
BBX 0 0 0 0
BITMAP
ENDCHAR
STARTCHAR 0101
ENCODING 257
SWIDTH 454 0
DWIDTH 30 0
BBX 0 0 0 0
BITMAP
ENDCHAR
STARTCHAR 0102
ENCODING 258
SWIDTH 454 0
DWIDTH 30 0
BBX 0 0 0 0
BITMAP
ENDCHAR
STARTCHAR 0103
ENCODING 259
SWIDTH 454 0
DWIDTH 30 0
BBX 0 0 0 0
BITMAP
ENDCHAR
STARTCHAR 0104
ENCODING 260
SWIDTH 454 0
DWIDTH 30 0
BBX 0 0 0 0
BITMAP
ENDCHAR
STARTCHAR 0105
ENCODING 261
SWIDTH 454 0
DWIDTH 30 0
BBX 0 0 0 0
BITMAP
ENDCHAR
STARTCHAR 0106
ENCODING 262
SWIDTH 454 0
DWIDTH 30 0
BBX 0 0 0 0
BITMAP
ENDCHAR
STARTCHAR 0107
ENCODING 263
SWIDTH 454 0
DWIDTH 30 0
BBX 0 0 0 0
BITMAP
ENDCHAR
STARTCHAR 0108
ENCODING 264
SWIDTH 454 0
DWIDTH 30 0
BBX 0 0 0 0
BITMAP
ENDCHAR
STARTCHAR 0109
ENCODING 265
SWIDTH 454 0
DWIDTH 30 0
BBX 0 0 0 0
BITMAP
ENDCHAR
STARTCHAR 010A
ENCODING 266
SWIDTH 454 0
DWIDTH 30 0
BBX 0 0 0 0
BITMAP
ENDCHAR
STARTCHAR 010B
ENCODING 267
SWIDTH 454 0
DWIDTH 30 0
BBX 0 0 0 0
BITMAP
ENDCHAR
STARTCHAR 010C
ENCODING 268
SWIDTH 454 0
DWIDTH 30 0
BBX 0 0 0 0
BITMAP
ENDCHAR
STARTCHAR 010D
ENCODING 269
SWIDTH 454 0
DWIDTH 30 0
BBX 0 0 0 0
BITMAP
ENDCHAR
STARTCHAR 010E
ENCODING 270
SWIDTH 454 0
DWIDTH 30 0
BBX 0 0 0 0
BITMAP
ENDCHAR
STARTCHAR 010F
ENCODING 271
SWIDTH 454 0
DWIDTH 30 0
BBX 0 0 0 0
BITMAP
ENDCHAR
STARTCHAR 0110
ENCODING 272
SWIDTH 454 0
DWIDTH 30 0
BBX 0 0 0 0
BITMAP
ENDCHAR
STARTCHAR 0111
ENCODING 273
SWIDTH 454 0
DWIDTH 30 0
BBX 0 0 0 0
BITMAP
ENDCHAR
STARTCHAR 0112
ENCODING 274
SWIDTH 454 0
DWIDTH 30 0
BBX 0 0 0 0
BITMAP
ENDCHAR
STARTCHAR 0113
ENCODING 275
SWIDTH 454 0
DWIDTH 30 0
BBX 0 0 0 0
BITMAP
ENDCHAR
STARTCHAR 0114
ENCODING 276
SWIDTH 454 0
DWIDTH 30 0
BBX 0 0 0 0
BITMAP
ENDCHAR
STARTCHAR 0115
ENCODING 277
SWIDTH 454 0
DWIDTH 30 0
BBX 0 0 0 0
BITMAP
ENDCHAR
STARTCHAR 0116
ENCODING 278
SWIDTH 454 0
DWIDTH 30 0
BBX 0 0 0 0
BITMAP
ENDCHAR
STARTCHAR 0117
ENCODING 279
SWIDTH 454 0
DWIDTH 30 0
BBX 0 0 0 0
BITMAP
ENDCHAR
STARTCHAR 0118
ENCODING 280
SWIDTH 454 0
DWIDTH 30 0
BBX 0 0 0 0
BITMAP
ENDCHAR
STARTCHAR 0119
ENCODING 281
SWIDTH 454 0
DWIDTH 30 0
BBX 0 0 0 0
BITMAP
ENDCHAR
STARTCHAR 011A
ENCODING 282
SWIDTH 454 0
DWIDTH 30 0
BBX 0 0 0 0
BITMAP
ENDCHAR
STARTCHAR 011B
ENCODING 283
SWIDTH 454 0
DWIDTH 30 0
BBX 0 0 0 0
BITMAP
ENDCHAR
STARTCHAR 011C
ENCODING 284
SWIDTH 454 0
DWIDTH 30 0
BBX 0 0 0 0
BITMAP
ENDCHAR
STARTCHAR 011D
ENCODING 285
SWIDTH 454 0
DWIDTH 30 0
BBX 0 0 0 0
BITMAP
ENDCHAR
STARTCHAR 011E
ENCODING 286
SWIDTH 454 0
DWIDTH 30 0
BBX 0 0 0 0
BITMAP
ENDCHAR
STARTCHAR 011F
ENCODING 287
SWIDTH 454 0
DWIDTH 30 0
BBX 0 0 0 0
BITMAP
ENDCHAR
STARTCHAR 0120
ENCODING 288
SWIDTH 454 0
DWIDTH 30 0
BBX 0 0 0 0
BITMAP
ENDCHAR
STARTCHAR 0121
ENCODING 289
SWIDTH 454 0
DWIDTH 30 0
BBX 0 0 0 0
BITMAP
ENDCHAR
STARTCHAR 0122
ENCODING 290
SWIDTH 454 0
DWIDTH 30 0
BBX 0 0 0 0
BITMAP
ENDCHAR
STARTCHAR 0123
ENCODING 291
SWIDTH 454 0
DWIDTH 30 0
BBX 0 0 0 0
BITMAP
ENDCHAR
STARTCHAR 0124
ENCODING 292
SWIDTH 454 0
DWIDTH 30 0
BBX 0 0 0 0
BITMAP
ENDCHAR
STARTCHAR 0125
ENCODING 293
SWIDTH 454 0
DWIDTH 30 0
BBX 0 0 0 0
BITMAP
ENDCHAR
STARTCHAR 0126
ENCODING 294
SWIDTH 454 0
DWIDTH 30 0
BBX 0 0 0 0
BITMAP
ENDCHAR
STARTCHAR 0127
ENCODING 295
SWIDTH 454 0
DWIDTH 30 0
BBX 0 0 0 0
BITMAP
ENDCHAR
STARTCHAR 0128
ENCODING 296
SWIDTH 454 0
DWIDTH 30 0
BBX 0 0 0 0
BITMAP
ENDCHAR
STARTCHAR 0129
ENCODING 297
SWIDTH 454 0
DWIDTH 30 0
BBX 0 0 0 0
BITMAP
ENDCHAR
STARTCHAR 012A
ENCODING 298
SWIDTH 454 0
DWIDTH 30 0
BBX 0 0 0 0
BITMAP
ENDCHAR
STARTCHAR 012B
ENCODING 299
SWIDTH 454 0
DWIDTH 30 0
BBX 0 0 0 0
BITMAP
ENDCHAR
STARTCHAR 012C
ENCODING 300
SWIDTH 454 0
DWIDTH 30 0
BBX 0 0 0 0
BITMAP
ENDCHAR
STARTCHAR 012D
ENCODING 301
SWIDTH 454 0
DWIDTH 30 0
BBX 0 0 0 0
BITMAP
ENDCHAR
STARTCHAR 012E
ENCODING 302
SWIDTH 454 0
DWIDTH 30 0
BBX 0 0 0 0
BITMAP
ENDCHAR
STARTCHAR 012F
ENCODING 303
SWIDTH 454 0
DWIDTH 30 0
BBX 0 0 0 0
BITMAP
ENDCHAR
STARTCHAR 0130
ENCODING 304
SWIDTH 454 0
DWIDTH 30 0
BBX 0 0 0 0
BITMAP
ENDCHAR
STARTCHAR 0131
ENCODING 305
SWIDTH 454 0
DWIDTH 30 0
BBX 0 0 0 0
BITMAP
ENDCHAR
STARTCHAR 0132
ENCODING 306
SWIDTH 454 0
DWIDTH 30 0
BBX 0 0 0 0
BITMAP
ENDCHAR
STARTCHAR 0133
ENCODING 307
SWIDTH 454 0
DWIDTH 30 0
BBX 0 0 0 0
BITMAP
ENDCHAR
STARTCHAR 0134
ENCODING 308
SWIDTH 454 0
DWIDTH 30 0
BBX 0 0 0 0
BITMAP
ENDCHAR
STARTCHAR 0135
ENCODING 309
SWIDTH 454 0
DWIDTH 30 0
BBX 0 0 0 0
BITMAP
ENDCHAR
STARTCHAR 0136
ENCODING 310
SWIDTH 454 0
DWIDTH 30 0
BBX 0 0 0 0
BITMAP
ENDCHAR
STARTCHAR 0137
ENCODING 311
SWIDTH 454 0
DWIDTH 30 0
BBX 0 0 0 0
BITMAP
ENDCHAR
STARTCHAR 0138
ENCODING 312
SWIDTH 454 0
DWIDTH 30 0
BBX 0 0 0 0
BITMAP
ENDCHAR
STARTCHAR 0139
ENCODING 313
SWIDTH 454 0
DWIDTH 30 0
BBX 0 0 0 0
BITMAP
ENDCHAR
STARTCHAR 013A
ENCODING 314
SWIDTH 454 0
DWIDTH 30 0
BBX 0 0 0 0
BITMAP
ENDCHAR
STARTCHAR 013B
ENCODING 315
SWIDTH 454 0
DWIDTH 30 0
BBX 0 0 0 0
BITMAP
ENDCHAR
STARTCHAR 013C
ENCODING 316
SWIDTH 454 0
DWIDTH 30 0
BBX 0 0 0 0
BITMAP
ENDCHAR
STARTCHAR 013D
ENCODING 317
SWIDTH 454 0
DWIDTH 30 0
BBX 0 0 0 0
BITMAP
ENDCHAR
STARTCHAR 013E
ENCODING 318
SWIDTH 454 0
DWIDTH 30 0
BBX 0 0 0 0
BITMAP
ENDCHAR
STARTCHAR 013F
ENCODING 319
SWIDTH 454 0
DWIDTH 30 0
BBX 0 0 0 0
BITMAP
ENDCHAR
STARTCHAR 0140
ENCODING 320
SWIDTH 454 0
DWIDTH 30 0
BBX 0 0 0 0
BITMAP
ENDCHAR
STARTCHAR 0141
ENCODING 321
SWIDTH 454 0
DWIDTH 30 0
BBX 0 0 0 0
BITMAP
ENDCHAR
STARTCHAR 0142
ENCODING 322
SWIDTH 454 0
DWIDTH 30 0
BBX 0 0 0 0
BITMAP
ENDCHAR
STARTCHAR 0143
ENCODING 323
SWIDTH 454 0
DWIDTH 30 0
BBX 0 0 0 0
BITMAP
ENDCHAR
STARTCHAR 0144
ENCODING 324
SWIDTH 454 0
DWIDTH 30 0
BBX 0 0 0 0
BITMAP
ENDCHAR
STARTCHAR 0145
ENCODING 325
SWIDTH 454 0
DWIDTH 30 0
BBX 0 0 0 0
BITMAP
ENDCHAR
STARTCHAR 0146
ENCODING 326
SWIDTH 454 0
DWIDTH 30 0
BBX 0 0 0 0
BITMAP
ENDCHAR
STARTCHAR 0147
ENCODING 327
SWIDTH 454 0
DWIDTH 30 0
BBX 0 0 0 0
BITMAP
ENDCHAR
STARTCHAR 0148
ENCODING 328
SWIDTH 454 0
DWIDTH 30 0
BBX 0 0 0 0
BITMAP
ENDCHAR
STARTCHAR 0149
ENCODING 329
SWIDTH 454 0
DWIDTH 30 0
BBX 0 0 0 0
BITMAP
ENDCHAR
STARTCHAR 014A
ENCODING 330
SWIDTH 454 0
DWIDTH 30 0
BBX 0 0 0 0
BITMAP
ENDCHAR
STARTCHAR 014B
ENCODING 331
SWIDTH 454 0
DWIDTH 30 0
BBX 0 0 0 0
BITMAP
ENDCHAR
STARTCHAR 014C
ENCODING 332
SWIDTH 454 0
DWIDTH 30 0
BBX 0 0 0 0
BITMAP
ENDCHAR
STARTCHAR 014D
ENCODING 333
SWIDTH 454 0
DWIDTH 30 0
BBX 0 0 0 0
BITMAP
ENDCHAR
STARTCHAR 014E
ENCODING 334
SWIDTH 454 0
DWIDTH 30 0
BBX 0 0 0 0
BITMAP
ENDCHAR
STARTCHAR 014F
ENCODING 335
SWIDTH 454 0
DWIDTH 30 0
BBX 0 0 0 0
BITMAP
ENDCHAR
STARTCHAR 0150
ENCODING 336
SWIDTH 454 0
DWIDTH 30 0
BBX 0 0 0 0
BITMAP
ENDCHAR
STARTCHAR 0151
ENCODING 337
SWIDTH 454 0
DWIDTH 30 0
BBX 0 0 0 0
BITMAP
ENDCHAR
STARTCHAR 0152
ENCODING 338
SWIDTH 469 0
DWIDTH 31 0
BBX 35 46 -2 0
BITMAP
03F1FFFFE0
0FFDFFFFE0
1FFFFFFFE0
3FFFFFFFE0
7FFFFFFFE0
7FFFFFFFE0
FFFFFFFFE0
FF0FF80000
FE07F80000
FE07F80000
FE07F80000
FE07F80000
FE07F80000
FE07F80000
FE07F80000
FE07F80000
FE07F80000
FE07F80000
FE07F80000
FE07FFFF00
FE07FFFF00
FE07FFFF00
FE07FFFF00
FE07FFFF00
FE07FFFF00
FE07FFFF00
FE07F80000
FE07F80000
FE07F80000
FE07F80000
FE07F80000
FE07F80000
FE07F80000
FE07F80000
FE07F80000
FE07F80000
FE07F80000
FE07F80000
FF0FF80000
FFFFFFFFE0
7FFFFFFFE0
7FFFFFFFE0
3FFFFFFFE0
1FFFFFFFE0
0FFDFFFFE0
03F1FFFFE0
ENDCHAR
STARTCHAR 0153
ENCODING 339
SWIDTH 636 0
DWIDTH 42 0
BBX 36 35 3 0
BITMAP
01FC03F800
07FF0FFE00
0FFF9FFF00
1FFFFFFF80
3FFFFFFFC0
7FFFFFFFE0
7F07FE0FE0
FE03FC07E0
FC01F803F0
FC01F803F0
FC01F803F0
FC01F803F0
FC01F803F0
FC01F803F0
FC01F803F0
FC01FFFFF0
FC01FFFFF0
FC01FFFFF0
FC01FFFFF0
FC01FFFFF0
FC01FFFFF0
FC01F80000
FC01F80000
FC01F80000
FC01F80000
FC01F803F0
FC01F803F0
FE03FC07F0
7F07FE0FE0
7FFFFFFFE0
3FFFFFFFC0
1FFFFFFF80
0FFF9FFF00
07FF0FFE00
01FC03F800
ENDCHAR
STARTCHAR 0154
ENCODING 340
SWIDTH 454 0
DWIDTH 30 0
BBX 0 0 0 0
BITMAP
ENDCHAR
STARTCHAR 0155
ENCODING 341
SWIDTH 454 0
DWIDTH 30 0
BBX 0 0 0 0
BITMAP
ENDCHAR
STARTCHAR 0156
ENCODING 342
SWIDTH 454 0
DWIDTH 30 0
BBX 0 0 0 0
BITMAP
ENDCHAR
STARTCHAR 0157
ENCODING 343
SWIDTH 454 0
DWIDTH 30 0
BBX 0 0 0 0
BITMAP
ENDCHAR
STARTCHAR 0158
ENCODING 344
SWIDTH 454 0
DWIDTH 30 0
BBX 0 0 0 0
BITMAP
ENDCHAR
STARTCHAR 0159
ENCODING 345
SWIDTH 454 0
DWIDTH 30 0
BBX 0 0 0 0
BITMAP
ENDCHAR
STARTCHAR 015A
ENCODING 346
SWIDTH 454 0
DWIDTH 30 0
BBX 0 0 0 0
BITMAP
ENDCHAR
STARTCHAR 015B
ENCODING 347
SWIDTH 454 0
DWIDTH 30 0
BBX 0 0 0 0
BITMAP
ENDCHAR
STARTCHAR 015C
ENCODING 348
SWIDTH 454 0
DWIDTH 30 0
BBX 0 0 0 0
BITMAP
ENDCHAR
STARTCHAR 015D
ENCODING 349
SWIDTH 454 0
DWIDTH 30 0
BBX 0 0 0 0
BITMAP
ENDCHAR
STARTCHAR 015E
ENCODING 350
SWIDTH 454 0
DWIDTH 30 0
BBX 0 0 0 0
BITMAP
ENDCHAR
STARTCHAR 015F
ENCODING 351
SWIDTH 454 0
DWIDTH 30 0
BBX 0 0 0 0
BITMAP
ENDCHAR
STARTCHAR 0160
ENCODING 352
SWIDTH 454 0
DWIDTH 30 0
BBX 0 0 0 0
BITMAP
ENDCHAR
STARTCHAR 0161
ENCODING 353
SWIDTH 454 0
DWIDTH 30 0
BBX 0 0 0 0
BITMAP
ENDCHAR
STARTCHAR 0162
ENCODING 354
SWIDTH 454 0
DWIDTH 30 0
BBX 0 0 0 0
BITMAP
ENDCHAR
STARTCHAR 0163
ENCODING 355
SWIDTH 454 0
DWIDTH 30 0
BBX 0 0 0 0
BITMAP
ENDCHAR
STARTCHAR 0164
ENCODING 356
SWIDTH 454 0
DWIDTH 30 0
BBX 0 0 0 0
BITMAP
ENDCHAR
STARTCHAR 0165
ENCODING 357
SWIDTH 454 0
DWIDTH 30 0
BBX 0 0 0 0
BITMAP
ENDCHAR
STARTCHAR 0166
ENCODING 358
SWIDTH 454 0
DWIDTH 30 0
BBX 0 0 0 0
BITMAP
ENDCHAR
STARTCHAR 0167
ENCODING 359
SWIDTH 454 0
DWIDTH 30 0
BBX 0 0 0 0
BITMAP
ENDCHAR
STARTCHAR 0168
ENCODING 360
SWIDTH 454 0
DWIDTH 30 0
BBX 0 0 0 0
BITMAP
ENDCHAR
STARTCHAR 0169
ENCODING 361
SWIDTH 454 0
DWIDTH 30 0
BBX 0 0 0 0
BITMAP
ENDCHAR
STARTCHAR 016A
ENCODING 362
SWIDTH 454 0
DWIDTH 30 0
BBX 0 0 0 0
BITMAP
ENDCHAR
STARTCHAR 016B
ENCODING 363
SWIDTH 454 0
DWIDTH 30 0
BBX 0 0 0 0
BITMAP
ENDCHAR
STARTCHAR 016C
ENCODING 364
SWIDTH 454 0
DWIDTH 30 0
BBX 0 0 0 0
BITMAP
ENDCHAR
STARTCHAR 016D
ENCODING 365
SWIDTH 454 0
DWIDTH 30 0
BBX 0 0 0 0
BITMAP
ENDCHAR
STARTCHAR 016E
ENCODING 366
SWIDTH 454 0
DWIDTH 30 0
BBX 0 0 0 0
BITMAP
ENDCHAR
STARTCHAR 016F
ENCODING 367
SWIDTH 454 0
DWIDTH 30 0
BBX 0 0 0 0
BITMAP
ENDCHAR
STARTCHAR 0170
ENCODING 368
SWIDTH 454 0
DWIDTH 30 0
BBX 0 0 0 0
BITMAP
ENDCHAR
STARTCHAR 0171
ENCODING 369
SWIDTH 454 0
DWIDTH 30 0
BBX 0 0 0 0
BITMAP
ENDCHAR
STARTCHAR 0172
ENCODING 370
SWIDTH 454 0
DWIDTH 30 0
BBX 0 0 0 0
BITMAP
ENDCHAR
STARTCHAR 0173
ENCODING 371
SWIDTH 454 0
DWIDTH 30 0
BBX 0 0 0 0
BITMAP
ENDCHAR
STARTCHAR 0174
ENCODING 372
SWIDTH 454 0
DWIDTH 30 0
BBX 0 0 0 0
BITMAP
ENDCHAR
STARTCHAR 0175
ENCODING 373
SWIDTH 454 0
DWIDTH 30 0
BBX 0 0 0 0
BITMAP
ENDCHAR
STARTCHAR 0176
ENCODING 374
SWIDTH 454 0
DWIDTH 30 0
BBX 0 0 0 0
BITMAP
ENDCHAR
STARTCHAR 0177
ENCODING 375
SWIDTH 454 0
DWIDTH 30 0
BBX 0 0 0 0
BITMAP
ENDCHAR
STARTCHAR 0178
ENCODING 376
SWIDTH 454 0
DWIDTH 30 0
BBX 0 0 0 0
BITMAP
ENDCHAR
STARTCHAR 0179
ENCODING 377
SWIDTH 454 0
DWIDTH 30 0
BBX 0 0 0 0
BITMAP
ENDCHAR
STARTCHAR 017A
ENCODING 378
SWIDTH 454 0
DWIDTH 30 0
BBX 0 0 0 0
BITMAP
ENDCHAR
STARTCHAR 017B
ENCODING 379
SWIDTH 454 0
DWIDTH 30 0
BBX 0 0 0 0
BITMAP
ENDCHAR
STARTCHAR 017C
ENCODING 380
SWIDTH 454 0
DWIDTH 30 0
BBX 0 0 0 0
BITMAP
ENDCHAR
STARTCHAR 017D
ENCODING 381
SWIDTH 454 0
DWIDTH 30 0
BBX 0 0 0 0
BITMAP
ENDCHAR
STARTCHAR 017E
ENCODING 382
SWIDTH 454 0
DWIDTH 30 0
BBX 0 0 0 0
BITMAP
ENDCHAR
STARTCHAR 017F
ENCODING 383
SWIDTH 454 0
DWIDTH 30 0
BBX 0 0 0 0
BITMAP
ENDCHAR
STARTCHAR 0180
ENCODING 384
SWIDTH 454 0
DWIDTH 30 0
BBX 0 0 0 0
BITMAP
ENDCHAR
STARTCHAR 0181
ENCODING 385
SWIDTH 454 0
DWIDTH 30 0
BBX 0 0 0 0
BITMAP
ENDCHAR
STARTCHAR 0182
ENCODING 386
SWIDTH 454 0
DWIDTH 30 0
BBX 0 0 0 0
BITMAP
ENDCHAR
STARTCHAR 0183
ENCODING 387
SWIDTH 454 0
DWIDTH 30 0
BBX 0 0 0 0
BITMAP
ENDCHAR
STARTCHAR 0184
ENCODING 388
SWIDTH 454 0
DWIDTH 30 0
BBX 0 0 0 0
BITMAP
ENDCHAR
STARTCHAR 0185
ENCODING 389
SWIDTH 454 0
DWIDTH 30 0
BBX 0 0 0 0
BITMAP
ENDCHAR
STARTCHAR 0186
ENCODING 390
SWIDTH 454 0
DWIDTH 30 0
BBX 0 0 0 0
BITMAP
ENDCHAR
STARTCHAR 0187
ENCODING 391
SWIDTH 454 0
DWIDTH 30 0
BBX 0 0 0 0
BITMAP
ENDCHAR
STARTCHAR 0188
ENCODING 392
SWIDTH 454 0
DWIDTH 30 0
BBX 0 0 0 0
BITMAP
ENDCHAR
STARTCHAR 0189
ENCODING 393
SWIDTH 454 0
DWIDTH 30 0
BBX 0 0 0 0
BITMAP
ENDCHAR
STARTCHAR 018A
ENCODING 394
SWIDTH 454 0
DWIDTH 30 0
BBX 0 0 0 0
BITMAP
ENDCHAR
STARTCHAR 018B
ENCODING 395
SWIDTH 454 0
DWIDTH 30 0
BBX 0 0 0 0
BITMAP
ENDCHAR
STARTCHAR 018C
ENCODING 396
SWIDTH 454 0
DWIDTH 30 0
BBX 0 0 0 0
BITMAP
ENDCHAR
STARTCHAR 018D
ENCODING 397
SWIDTH 454 0
DWIDTH 30 0
BBX 0 0 0 0
BITMAP
ENDCHAR
STARTCHAR 018E
ENCODING 398
SWIDTH 454 0
DWIDTH 30 0
BBX 0 0 0 0
BITMAP
ENDCHAR
STARTCHAR 018F
ENCODING 399
SWIDTH 454 0
DWIDTH 30 0
BBX 0 0 0 0
BITMAP
ENDCHAR
STARTCHAR 0190
ENCODING 400
SWIDTH 454 0
DWIDTH 30 0
BBX 0 0 0 0
BITMAP
ENDCHAR
STARTCHAR 0191
ENCODING 401
SWIDTH 454 0
DWIDTH 30 0
BBX 0 0 0 0
BITMAP
ENDCHAR
STARTCHAR 0192
ENCODING 402
SWIDTH 454 0
DWIDTH 30 0
BBX 0 0 0 0
BITMAP
ENDCHAR
STARTCHAR 0193
ENCODING 403
SWIDTH 454 0
DWIDTH 30 0
BBX 0 0 0 0
BITMAP
ENDCHAR
STARTCHAR 0194
ENCODING 404
SWIDTH 454 0
DWIDTH 30 0
BBX 0 0 0 0
BITMAP
ENDCHAR
STARTCHAR 0195
ENCODING 405
SWIDTH 454 0
DWIDTH 30 0
BBX 0 0 0 0
BITMAP
ENDCHAR
STARTCHAR 0196
ENCODING 406
SWIDTH 454 0
DWIDTH 30 0
BBX 0 0 0 0
BITMAP
ENDCHAR
STARTCHAR 0197
ENCODING 407
SWIDTH 454 0
DWIDTH 30 0
BBX 0 0 0 0
BITMAP
ENDCHAR
STARTCHAR 0198
ENCODING 408
SWIDTH 454 0
DWIDTH 30 0
BBX 0 0 0 0
BITMAP
ENDCHAR
STARTCHAR 0199
ENCODING 409
SWIDTH 454 0
DWIDTH 30 0
BBX 0 0 0 0
BITMAP
ENDCHAR
STARTCHAR 019A
ENCODING 410
SWIDTH 454 0
DWIDTH 30 0
BBX 0 0 0 0
BITMAP
ENDCHAR
STARTCHAR 019B
ENCODING 411
SWIDTH 454 0
DWIDTH 30 0
BBX 0 0 0 0
BITMAP
ENDCHAR
STARTCHAR 019C
ENCODING 412
SWIDTH 454 0
DWIDTH 30 0
BBX 0 0 0 0
BITMAP
ENDCHAR
STARTCHAR 019D
ENCODING 413
SWIDTH 454 0
DWIDTH 30 0
BBX 0 0 0 0
BITMAP
ENDCHAR
STARTCHAR 019E
ENCODING 414
SWIDTH 454 0
DWIDTH 30 0
BBX 0 0 0 0
BITMAP
ENDCHAR
STARTCHAR 019F
ENCODING 415
SWIDTH 454 0
DWIDTH 30 0
BBX 0 0 0 0
BITMAP
ENDCHAR
STARTCHAR 01A0
ENCODING 416
SWIDTH 454 0
DWIDTH 30 0
BBX 0 0 0 0
BITMAP
ENDCHAR
STARTCHAR 01A1
ENCODING 417
SWIDTH 454 0
DWIDTH 30 0
BBX 0 0 0 0
BITMAP
ENDCHAR
STARTCHAR 01A2
ENCODING 418
SWIDTH 454 0
DWIDTH 30 0
BBX 0 0 0 0
BITMAP
ENDCHAR
STARTCHAR 01A3
ENCODING 419
SWIDTH 454 0
DWIDTH 30 0
BBX 0 0 0 0
BITMAP
ENDCHAR
STARTCHAR 01A4
ENCODING 420
SWIDTH 454 0
DWIDTH 30 0
BBX 0 0 0 0
BITMAP
ENDCHAR
STARTCHAR 01A5
ENCODING 421
SWIDTH 454 0
DWIDTH 30 0
BBX 0 0 0 0
BITMAP
ENDCHAR
STARTCHAR 01A6
ENCODING 422
SWIDTH 454 0
DWIDTH 30 0
BBX 0 0 0 0
BITMAP
ENDCHAR
STARTCHAR 01A7
ENCODING 423
SWIDTH 454 0
DWIDTH 30 0
BBX 0 0 0 0
BITMAP
ENDCHAR
STARTCHAR 01A8
ENCODING 424
SWIDTH 454 0
DWIDTH 30 0
BBX 0 0 0 0
BITMAP
ENDCHAR
STARTCHAR 01A9
ENCODING 425
SWIDTH 454 0
DWIDTH 30 0
BBX 0 0 0 0
BITMAP
ENDCHAR
STARTCHAR 01AA
ENCODING 426
SWIDTH 454 0
DWIDTH 30 0
BBX 0 0 0 0
BITMAP
ENDCHAR
STARTCHAR 01AB
ENCODING 427
SWIDTH 454 0
DWIDTH 30 0
BBX 0 0 0 0
BITMAP
ENDCHAR
STARTCHAR 01AC
ENCODING 428
SWIDTH 454 0
DWIDTH 30 0
BBX 0 0 0 0
BITMAP
ENDCHAR
STARTCHAR 01AD
ENCODING 429
SWIDTH 454 0
DWIDTH 30 0
BBX 0 0 0 0
BITMAP
ENDCHAR
STARTCHAR 01AE
ENCODING 430
SWIDTH 454 0
DWIDTH 30 0
BBX 0 0 0 0
BITMAP
ENDCHAR
STARTCHAR 01AF
ENCODING 431
SWIDTH 454 0
DWIDTH 30 0
BBX 0 0 0 0
BITMAP
ENDCHAR
STARTCHAR 01B0
ENCODING 432
SWIDTH 454 0
DWIDTH 30 0
BBX 0 0 0 0
BITMAP
ENDCHAR
STARTCHAR 01B1
ENCODING 433
SWIDTH 454 0
DWIDTH 30 0
BBX 0 0 0 0
BITMAP
ENDCHAR
STARTCHAR 01B2
ENCODING 434
SWIDTH 454 0
DWIDTH 30 0
BBX 0 0 0 0
BITMAP
ENDCHAR
STARTCHAR 01B3
ENCODING 435
SWIDTH 454 0
DWIDTH 30 0
BBX 0 0 0 0
BITMAP
ENDCHAR
STARTCHAR 01B4
ENCODING 436
SWIDTH 454 0
DWIDTH 30 0
BBX 0 0 0 0
BITMAP
ENDCHAR
STARTCHAR 01B5
ENCODING 437
SWIDTH 454 0
DWIDTH 30 0
BBX 0 0 0 0
BITMAP
ENDCHAR
STARTCHAR 01B6
ENCODING 438
SWIDTH 454 0
DWIDTH 30 0
BBX 0 0 0 0
BITMAP
ENDCHAR
STARTCHAR 01B7
ENCODING 439
SWIDTH 454 0
DWIDTH 30 0
BBX 0 0 0 0
BITMAP
ENDCHAR
STARTCHAR 01B8
ENCODING 440
SWIDTH 454 0
DWIDTH 30 0
BBX 0 0 0 0
BITMAP
ENDCHAR
STARTCHAR 01B9
ENCODING 441
SWIDTH 454 0
DWIDTH 30 0
BBX 0 0 0 0
BITMAP
ENDCHAR
STARTCHAR 01BA
ENCODING 442
SWIDTH 454 0
DWIDTH 30 0
BBX 0 0 0 0
BITMAP
ENDCHAR
STARTCHAR 01BB
ENCODING 443
SWIDTH 454 0
DWIDTH 30 0
BBX 0 0 0 0
BITMAP
ENDCHAR
STARTCHAR 01BC
ENCODING 444
SWIDTH 454 0
DWIDTH 30 0
BBX 0 0 0 0
BITMAP
ENDCHAR
STARTCHAR 01BD
ENCODING 445
SWIDTH 454 0
DWIDTH 30 0
BBX 0 0 0 0
BITMAP
ENDCHAR
STARTCHAR 01BE
ENCODING 446
SWIDTH 454 0
DWIDTH 30 0
BBX 0 0 0 0
BITMAP
ENDCHAR
STARTCHAR 01BF
ENCODING 447
SWIDTH 454 0
DWIDTH 30 0
BBX 0 0 0 0
BITMAP
ENDCHAR
STARTCHAR 01C0
ENCODING 448
SWIDTH 454 0
DWIDTH 30 0
BBX 0 0 0 0
BITMAP
ENDCHAR
STARTCHAR 01C1
ENCODING 449
SWIDTH 454 0
DWIDTH 30 0
BBX 0 0 0 0
BITMAP
ENDCHAR
STARTCHAR 01C2
ENCODING 450
SWIDTH 454 0
DWIDTH 30 0
BBX 0 0 0 0
BITMAP
ENDCHAR
STARTCHAR 01C3
ENCODING 451
SWIDTH 454 0
DWIDTH 30 0
BBX 0 0 0 0
BITMAP
ENDCHAR
STARTCHAR 01C4
ENCODING 452
SWIDTH 454 0
DWIDTH 30 0
BBX 0 0 0 0
BITMAP
ENDCHAR
STARTCHAR 01C5
ENCODING 453
SWIDTH 454 0
DWIDTH 30 0
BBX 0 0 0 0
BITMAP
ENDCHAR
STARTCHAR 01C6
ENCODING 454
SWIDTH 454 0
DWIDTH 30 0
BBX 0 0 0 0
BITMAP
ENDCHAR
STARTCHAR 01C7
ENCODING 455
SWIDTH 454 0
DWIDTH 30 0
BBX 0 0 0 0
BITMAP
ENDCHAR
STARTCHAR 01C8
ENCODING 456
SWIDTH 454 0
DWIDTH 30 0
BBX 0 0 0 0
BITMAP
ENDCHAR
STARTCHAR 01C9
ENCODING 457
SWIDTH 454 0
DWIDTH 30 0
BBX 0 0 0 0
BITMAP
ENDCHAR
STARTCHAR 01CA
ENCODING 458
SWIDTH 454 0
DWIDTH 30 0
BBX 0 0 0 0
BITMAP
ENDCHAR
STARTCHAR 01CB
ENCODING 459
SWIDTH 454 0
DWIDTH 30 0
BBX 0 0 0 0
BITMAP
ENDCHAR
STARTCHAR 01CC
ENCODING 460
SWIDTH 454 0
DWIDTH 30 0
BBX 0 0 0 0
BITMAP
ENDCHAR
STARTCHAR 01CD
ENCODING 461
SWIDTH 454 0
DWIDTH 30 0
BBX 0 0 0 0
BITMAP
ENDCHAR
STARTCHAR 01CE
ENCODING 462
SWIDTH 454 0
DWIDTH 30 0
BBX 0 0 0 0
BITMAP
ENDCHAR
STARTCHAR 01CF
ENCODING 463
SWIDTH 454 0
DWIDTH 30 0
BBX 0 0 0 0
BITMAP
ENDCHAR
STARTCHAR 01D0
ENCODING 464
SWIDTH 454 0
DWIDTH 30 0
BBX 0 0 0 0
BITMAP
ENDCHAR
STARTCHAR 01D1
ENCODING 465
SWIDTH 454 0
DWIDTH 30 0
BBX 0 0 0 0
BITMAP
ENDCHAR
STARTCHAR 01D2
ENCODING 466
SWIDTH 454 0
DWIDTH 30 0
BBX 0 0 0 0
BITMAP
ENDCHAR
STARTCHAR 01D3
ENCODING 467
SWIDTH 454 0
DWIDTH 30 0
BBX 0 0 0 0
BITMAP
ENDCHAR
STARTCHAR 01D4
ENCODING 468
SWIDTH 454 0
DWIDTH 30 0
BBX 0 0 0 0
BITMAP
ENDCHAR
STARTCHAR 01D5
ENCODING 469
SWIDTH 454 0
DWIDTH 30 0
BBX 0 0 0 0
BITMAP
ENDCHAR
STARTCHAR 01D6
ENCODING 470
SWIDTH 454 0
DWIDTH 30 0
BBX 0 0 0 0
BITMAP
ENDCHAR
STARTCHAR 01D7
ENCODING 471
SWIDTH 454 0
DWIDTH 30 0
BBX 0 0 0 0
BITMAP
ENDCHAR
STARTCHAR 01D8
ENCODING 472
SWIDTH 454 0
DWIDTH 30 0
BBX 0 0 0 0
BITMAP
ENDCHAR
STARTCHAR 01D9
ENCODING 473
SWIDTH 454 0
DWIDTH 30 0
BBX 0 0 0 0
BITMAP
ENDCHAR
STARTCHAR 01DA
ENCODING 474
SWIDTH 454 0
DWIDTH 30 0
BBX 0 0 0 0
BITMAP
ENDCHAR
STARTCHAR 01DB
ENCODING 475
SWIDTH 454 0
DWIDTH 30 0
BBX 0 0 0 0
BITMAP
ENDCHAR
STARTCHAR 01DC
ENCODING 476
SWIDTH 454 0
DWIDTH 30 0
BBX 0 0 0 0
BITMAP
ENDCHAR
STARTCHAR 01DD
ENCODING 477
SWIDTH 454 0
DWIDTH 30 0
BBX 0 0 0 0
BITMAP
ENDCHAR
STARTCHAR 01DE
ENCODING 478
SWIDTH 454 0
DWIDTH 30 0
BBX 0 0 0 0
BITMAP
ENDCHAR
STARTCHAR 01DF
ENCODING 479
SWIDTH 454 0
DWIDTH 30 0
BBX 0 0 0 0
BITMAP
ENDCHAR
STARTCHAR 01E0
ENCODING 480
SWIDTH 454 0
DWIDTH 30 0
BBX 0 0 0 0
BITMAP
ENDCHAR
STARTCHAR 01E1
ENCODING 481
SWIDTH 454 0
DWIDTH 30 0
BBX 0 0 0 0
BITMAP
ENDCHAR
STARTCHAR 01E2
ENCODING 482
SWIDTH 454 0
DWIDTH 30 0
BBX 0 0 0 0
BITMAP
ENDCHAR
STARTCHAR 01E3
ENCODING 483
SWIDTH 454 0
DWIDTH 30 0
BBX 0 0 0 0
BITMAP
ENDCHAR
STARTCHAR 01E4
ENCODING 484
SWIDTH 454 0
DWIDTH 30 0
BBX 0 0 0 0
BITMAP
ENDCHAR
STARTCHAR 01E5
ENCODING 485
SWIDTH 454 0
DWIDTH 30 0
BBX 0 0 0 0
BITMAP
ENDCHAR
STARTCHAR 01E6
ENCODING 486
SWIDTH 454 0
DWIDTH 30 0
BBX 0 0 0 0
BITMAP
ENDCHAR
STARTCHAR 01E7
ENCODING 487
SWIDTH 454 0
DWIDTH 30 0
BBX 0 0 0 0
BITMAP
ENDCHAR
STARTCHAR 01E8
ENCODING 488
SWIDTH 454 0
DWIDTH 30 0
BBX 0 0 0 0
BITMAP
ENDCHAR
STARTCHAR 01E9
ENCODING 489
SWIDTH 454 0
DWIDTH 30 0
BBX 0 0 0 0
BITMAP
ENDCHAR
STARTCHAR 01EA
ENCODING 490
SWIDTH 454 0
DWIDTH 30 0
BBX 0 0 0 0
BITMAP
ENDCHAR
STARTCHAR 01EB
ENCODING 491
SWIDTH 454 0
DWIDTH 30 0
BBX 0 0 0 0
BITMAP
ENDCHAR
STARTCHAR 01EC
ENCODING 492
SWIDTH 454 0
DWIDTH 30 0
BBX 0 0 0 0
BITMAP
ENDCHAR
STARTCHAR 01ED
ENCODING 493
SWIDTH 454 0
DWIDTH 30 0
BBX 0 0 0 0
BITMAP
ENDCHAR
STARTCHAR 01EE
ENCODING 494
SWIDTH 454 0
DWIDTH 30 0
BBX 0 0 0 0
BITMAP
ENDCHAR
STARTCHAR 01EF
ENCODING 495
SWIDTH 454 0
DWIDTH 30 0
BBX 0 0 0 0
BITMAP
ENDCHAR
STARTCHAR 01F0
ENCODING 496
SWIDTH 454 0
DWIDTH 30 0
BBX 0 0 0 0
BITMAP
ENDCHAR
STARTCHAR 01F1
ENCODING 497
SWIDTH 454 0
DWIDTH 30 0
BBX 0 0 0 0
BITMAP
ENDCHAR
STARTCHAR 01F2
ENCODING 498
SWIDTH 454 0
DWIDTH 30 0
BBX 0 0 0 0
BITMAP
ENDCHAR
STARTCHAR 01F3
ENCODING 499
SWIDTH 454 0
DWIDTH 30 0
BBX 0 0 0 0
BITMAP
ENDCHAR
STARTCHAR 01F4
ENCODING 500
SWIDTH 454 0
DWIDTH 30 0
BBX 0 0 0 0
BITMAP
ENDCHAR
STARTCHAR 01F5
ENCODING 501
SWIDTH 454 0
DWIDTH 30 0
BBX 0 0 0 0
BITMAP
ENDCHAR
STARTCHAR 01F6
ENCODING 502
SWIDTH 454 0
DWIDTH 30 0
BBX 0 0 0 0
BITMAP
ENDCHAR
STARTCHAR 01F7
ENCODING 503
SWIDTH 454 0
DWIDTH 30 0
BBX 0 0 0 0
BITMAP
ENDCHAR
STARTCHAR 01F8
ENCODING 504
SWIDTH 454 0
DWIDTH 30 0
BBX 0 0 0 0
BITMAP
ENDCHAR
STARTCHAR 01F9
ENCODING 505
SWIDTH 454 0
DWIDTH 30 0
BBX 0 0 0 0
BITMAP
ENDCHAR
STARTCHAR 01FA
ENCODING 506
SWIDTH 454 0
DWIDTH 30 0
BBX 0 0 0 0
BITMAP
ENDCHAR
STARTCHAR 01FB
ENCODING 507
SWIDTH 454 0
DWIDTH 30 0
BBX 0 0 0 0
BITMAP
ENDCHAR
STARTCHAR 01FC
ENCODING 508
SWIDTH 454 0
DWIDTH 30 0
BBX 0 0 0 0
BITMAP
ENDCHAR
STARTCHAR 01FD
ENCODING 509
SWIDTH 454 0
DWIDTH 30 0
BBX 0 0 0 0
BITMAP
ENDCHAR
STARTCHAR 01FE
ENCODING 510
SWIDTH 454 0
DWIDTH 30 0
BBX 0 0 0 0
BITMAP
ENDCHAR
STARTCHAR 01FF
ENCODING 511
SWIDTH 454 0
DWIDTH 30 0
BBX 0 0 0 0
BITMAP
ENDCHAR
STARTCHAR 0200
ENCODING 512
SWIDTH 454 0
DWIDTH 30 0
BBX 0 0 0 0
BITMAP
ENDCHAR
STARTCHAR 0201
ENCODING 513
SWIDTH 454 0
DWIDTH 30 0
BBX 0 0 0 0
BITMAP
ENDCHAR
STARTCHAR 0202
ENCODING 514
SWIDTH 454 0
DWIDTH 30 0
BBX 0 0 0 0
BITMAP
ENDCHAR
STARTCHAR 0203
ENCODING 515
SWIDTH 454 0
DWIDTH 30 0
BBX 0 0 0 0
BITMAP
ENDCHAR
STARTCHAR 0204
ENCODING 516
SWIDTH 454 0
DWIDTH 30 0
BBX 0 0 0 0
BITMAP
ENDCHAR
STARTCHAR 0205
ENCODING 517
SWIDTH 454 0
DWIDTH 30 0
BBX 0 0 0 0
BITMAP
ENDCHAR
STARTCHAR 0206
ENCODING 518
SWIDTH 454 0
DWIDTH 30 0
BBX 0 0 0 0
BITMAP
ENDCHAR
STARTCHAR 0207
ENCODING 519
SWIDTH 454 0
DWIDTH 30 0
BBX 0 0 0 0
BITMAP
ENDCHAR
STARTCHAR 0208
ENCODING 520
SWIDTH 454 0
DWIDTH 30 0
BBX 0 0 0 0
BITMAP
ENDCHAR
STARTCHAR 0209
ENCODING 521
SWIDTH 454 0
DWIDTH 30 0
BBX 0 0 0 0
BITMAP
ENDCHAR
STARTCHAR 020A
ENCODING 522
SWIDTH 454 0
DWIDTH 30 0
BBX 0 0 0 0
BITMAP
ENDCHAR
STARTCHAR 020B
ENCODING 523
SWIDTH 454 0
DWIDTH 30 0
BBX 0 0 0 0
BITMAP
ENDCHAR
STARTCHAR 020C
ENCODING 524
SWIDTH 454 0
DWIDTH 30 0
BBX 0 0 0 0
BITMAP
ENDCHAR
STARTCHAR 020D
ENCODING 525
SWIDTH 454 0
DWIDTH 30 0
BBX 0 0 0 0
BITMAP
ENDCHAR
STARTCHAR 020E
ENCODING 526
SWIDTH 454 0
DWIDTH 30 0
BBX 0 0 0 0
BITMAP
ENDCHAR
STARTCHAR 020F
ENCODING 527
SWIDTH 454 0
DWIDTH 30 0
BBX 0 0 0 0
BITMAP
ENDCHAR
STARTCHAR 0210
ENCODING 528
SWIDTH 454 0
DWIDTH 30 0
BBX 0 0 0 0
BITMAP
ENDCHAR
STARTCHAR 0211
ENCODING 529
SWIDTH 454 0
DWIDTH 30 0
BBX 0 0 0 0
BITMAP
ENDCHAR
STARTCHAR 0212
ENCODING 530
SWIDTH 454 0
DWIDTH 30 0
BBX 0 0 0 0
BITMAP
ENDCHAR
STARTCHAR 0213
ENCODING 531
SWIDTH 454 0
DWIDTH 30 0
BBX 0 0 0 0
BITMAP
ENDCHAR
STARTCHAR 0214
ENCODING 532
SWIDTH 454 0
DWIDTH 30 0
BBX 0 0 0 0
BITMAP
ENDCHAR
STARTCHAR 0215
ENCODING 533
SWIDTH 454 0
DWIDTH 30 0
BBX 0 0 0 0
BITMAP
ENDCHAR
STARTCHAR 0216
ENCODING 534
SWIDTH 454 0
DWIDTH 30 0
BBX 0 0 0 0
BITMAP
ENDCHAR
STARTCHAR 0217
ENCODING 535
SWIDTH 454 0
DWIDTH 30 0
BBX 0 0 0 0
BITMAP
ENDCHAR
STARTCHAR 0218
ENCODING 536
SWIDTH 454 0
DWIDTH 30 0
BBX 0 0 0 0
BITMAP
ENDCHAR
STARTCHAR 0219
ENCODING 537
SWIDTH 454 0
DWIDTH 30 0
BBX 0 0 0 0
BITMAP
ENDCHAR
STARTCHAR 021A
ENCODING 538
SWIDTH 454 0
DWIDTH 30 0
BBX 0 0 0 0
BITMAP
ENDCHAR
STARTCHAR 021B
ENCODING 539
SWIDTH 454 0
DWIDTH 30 0
BBX 0 0 0 0
BITMAP
ENDCHAR
STARTCHAR 021C
ENCODING 540
SWIDTH 454 0
DWIDTH 30 0
BBX 0 0 0 0
BITMAP
ENDCHAR
STARTCHAR 021D
ENCODING 541
SWIDTH 454 0
DWIDTH 30 0
BBX 0 0 0 0
BITMAP
ENDCHAR
STARTCHAR 021E
ENCODING 542
SWIDTH 454 0
DWIDTH 30 0
BBX 0 0 0 0
BITMAP
ENDCHAR
STARTCHAR 021F
ENCODING 543
SWIDTH 454 0
DWIDTH 30 0
BBX 0 0 0 0
BITMAP
ENDCHAR
STARTCHAR 20AC
ENCODING 8364
SWIDTH 530 0
DWIDTH 35 0
BBX 29 46 3 0
BITMAP
0003F800
000FFE00
003FFF00
007FFFC0
00FFFFE0
00FFFFE0
01FE0FF0
01F807F0
03F803F8
03F001F8
03F001F8
03F001F8
03F00000
03F00000
03F00000
03F00000
3FFFFF80
7FFFFF80
7FFFFF80
7FFFFF00
FFFFFF00
FFFFFE00
03F00000
03F00000
3FFFFC00
7FFFFC00
7FFFFC00
7FFFF800
FFFFF800
FFFFF000
03F00000
03F00000
03F00000
03F00000
03F001F8
03F001F8
03F001F8
03F803F8
01FC03F0
01FE0FF0
00FFFFE0
00FFFFE0
007FFFC0
003FFF80
000FFE00
0003F800
ENDCHAR
STARTCHAR 2190
ENCODING 8592
SWIDTH 727 0
DWIDTH 48 0
BBX 42 33 3 0
BITMAP
0000C0000000
0001E0000000
0003F0000000
0007F8000000
000FF0000000
001FE0000000
003FC0000000
007F80000000
00FF00000000
01FE00000000
03FC00000000
07F800000000
0FF000000000
1FE000000000
3FFFFFFFFFC0
7FFFFFFFFFC0
FFFFFFFFFFC0
7FFFFFFFFFC0
3FFFFFFFFFC0
1FFFFFFFFFC0
0FF000000000
07F800000000
03FC00000000
01FE00000000
00FF00000000
007F80000000
003FC0000000
001FE0000000
000FF0000000
0007F8000000
0003F0000000
0001E0000000
0000C0000000
ENDCHAR
STARTCHAR 2191
ENCODING 8593
SWIDTH 621 0
DWIDTH 41 0
BBX 34 41 4 -3
BITMAP
0000C00000
0001E00000
0003F00000
0007F80000
000FFC0000
001FFE0000
003FFF0000
007FFF8000
00FFFFC000
01FFFFE000
03FFFFF000
07FBF7F800
0FF3F3FC00
1FE3F1FE00
3FC3F0FF00
7F83F07F80
FF03F03FC0
7E03F01F80
3C03F00F00
1803F00600
0003F00000
0003F00000
0003F00000
0003F00000
0003F00000
0003F00000
0003F00000
0003F00000
0003F00000
0003F00000
0003F00000
0003F00000
0003F00000
0003F00000
0003F00000
0003F00000
0003F00000
0003F00000
0003F00000
0003F00000
0003F00000
ENDCHAR
STARTCHAR 2192
ENCODING 8594
SWIDTH 727 0
DWIDTH 48 0
BBX 41 34 3 0
BITMAP
000000800000
000001C00000
000003E00000
000007F00000
000007F80000
000003FC0000
000001FE0000
000000FF0000
0000007F8000
0000003FC000
0000001FE000
0000000FF000
00000007F800
00000003FC00
FFFFFFFFFE00
FFFFFFFFFF00
FFFFFFFFFF80
FFFFFFFFFF80
FFFFFFFFFF00
FFFFFFFFFE00
00000003FC00
00000007F800
0000000FF000
0000001FE000
0000003FC000
0000007F8000
000000FF0000
000001FE0000
000003FC0000
000007F80000
000007F00000
000003E00000
000001C00000
000000800000
ENDCHAR
STARTCHAR 2193
ENCODING 8595
SWIDTH 621 0
DWIDTH 41 0
BBX 34 41 4 -3
BITMAP
0003F00000
0003F00000
0003F00000
0003F00000
0003F00000
0003F00000
0003F00000
0003F00000
0003F00000
0003F00000
0003F00000
0003F00000
0003F00000
0003F00000
0003F00000
0003F00000
0003F00000
0003F00000
0003F00000
0003F00000
0003F00000
1803F00600
3C03F00F00
7E03F01F80
FF03F03FC0
7F83F07F80
3FC3F0FF00
1FE3F1FE00
0FF3F3FC00
07FBF7F800
03FFFFF000
01FFFFE000
00FFFFC000
007FFF8000
003FFF0000
001FFE0000
000FFC0000
0007F80000
0003F00000
0001E00000
0000C00000
ENDCHAR
STARTCHAR 2196
ENCODING 8598
SWIDTH 575 0
DWIDTH 38 0
BBX 31 32 3 0
BITMAP
FFFFFF00
FFFFFF00
FFFFFF00
FFFFFF00
FFFFFF00
FFFFFF00
FFC00000
FFE00000
FFF00000
FFF80000
FDFC0000
FCFE0000
FC7F0000
FC3F8000
FC1FC000
FC0FE000
FC07F000
FC03F800
FC01FC00
FC00FE00
FC007F00
FC003F80
FC001FC0
FC001FE0
00000FF0
000007F8
000003FC
000001FE
000000FE
0000007C
00000038
00000010
ENDCHAR
STARTCHAR 2197
ENCODING 8599
SWIDTH 575 0
DWIDTH 38 0
BBX 32 31 3 0
BITMAP
00FFFFFF
00FFFFFF
00FFFFFF
00FFFFFF
00FFFFFF
00FFFFFF
000007FF
00000FFF
00001FFF
00003FFF
00007FBF
0000FF3F
0001FE3F
0003FC3F
0007F83F
000FF03F
001FE03F
003FC03F
007F803F
00FF003F
01FE003F
03FC003F
07F8003F
0FF0003F
1FE00000
3FC00000
7F800000
FF000000
7E000000
3C000000
18000000
ENDCHAR
STARTCHAR 2198
ENCODING 8600
SWIDTH 575 0
DWIDTH 38 0
BBX 32 31 3 0
BITMAP
18000000
3C000000
7E000000
FF000000
7F800000
3FC00000
1FE00000
0FF0003F
07F8003F
03FC003F
01FE003F
00FF003F
007F803F
003FC03F
001FE03F
000FF03F
0007F83F
0003FC3F
0001FE3F
0000FF3F
00007FBF
00003FFF
00001FFF
00000FFF
000007FF
00FFFFFF
00FFFFFF
00FFFFFF
00FFFFFF
00FFFFFF
00FFFFFF
ENDCHAR
STARTCHAR 2199
ENCODING 8601
SWIDTH 575 0
DWIDTH 38 0
BBX 31 31 3 0
BITMAP
00000018
00000038
0000007C
000000FE
000001FC
000003F8
000007F0
FC000FE0
FC001FC0
FC003F80
FC007F00
FC00FE00
FC01FC00
FC03F800
FC07F000
FC0FE000
FC1FC000
FC3F8000
FC7F0000
FCFE0000
FDFC0000
FFF80000
FFF00000
FFE00000
FFC00000
FFFFFF00
FFFFFF00
FFFFFF00
FFFFFF00
FFFFFF00
FFFFFF00
ENDCHAR
STARTCHAR 26DF
ENCODING 9951
SWIDTH 2666 0
DWIDTH 176 0
BBX 170 46 3 0
BITMAP
FFFFFFFFFFFFFFFFFFFFFFFFFFFFFFFFFFE000000000
FFFFFFFFFFFFFFFFFFFFFFFFFFFFFFFFFFE000000000
FFFFFFFFFFFFFFFFFFFFFFFFFFFFFFFFFFE0FFE00000
FFFFFFFFFFFFFFFFFFFFFFFFFFFFFFFFFFE0FFFC0000
FFFFFFFFFFFFFFFFFFFFFFFFFFFFFFFFFFE1FFFF0000
FFFFFFFFFFFFFFFFFFFFFFFFFFFFFFFFFFE1FFFF8000
FFFFFFFFFFFFFFFFFFFFFFFFFFFFFFFFFFE1FFFFF800
FFFFFFFFFFFFFFFFFFFFFFFFFFFFFFFFFFE1FFFFFC00
FFFFFFFFFFFFFFFFFFFFFFFFFFFFFFFFFFE1FFFFFF00
FFFFFFFFFFFFFFFFFFFFFFFFFFFFFFFFFFE1FFFFFF80
FFFFFFFFFFFFFFFFFFFFFFFFFFFFFFFFFFE1FFFFFF80
FFFFFFFFFFFFFFFFFFFFFFFFFFFFFFFFFFE1FFE00600
FFFFFFFFFFFFFFFFFFFFFFFFFFFFFFFFFFE1FFE00600
FFFFFFFFFFFFFFFFFFFFFFFFFFFFFFFFFFE1FFE00600
FFFFFFFFFFFFFFFFFFFFFFFFFFFFFFFFFFE1FFE00600
FFFFFFFFFFFFFFFFFFFFFFFFFFFFFFFFFFE1FFE00600
FFFFFFFFFFFFFFFFFFFFFFFFFFFFFFFFFFE1FFE00600
FFFFFFFFFFFFFFFFFFFFFFFFFFFFFFFFFFE1FFE00600
FFFFFFFFFFFFFFFFFFFFFFFFFFFFFFFFFFE1FFE00600
FFFFFFFFFFFFFFFFFFFFFFFFFFFFFFFFFFE1FFE00600
FFFFFFFFFFFFFFFFFFFFFFFFFFFFFFFFFFE1FFE00600
FFFFFFFFFFFFFFFFFFFFFFFFFFFFFFFFFFE1FFE00600
FFFFFFFFFFFFFFFFFFFFFFFFFFFFFFFFFFE1FFFFFFC0
FFFFFFFFFFFFFFFFFFFFFFFFFFFFFFFFFFF1FFFFFFC0
FFFFFFFFFFFFFFFFFFFFFFFFFFFFFFFFFFF1FFFFFFC0
FFFFFFFFFFFFFFFFFFFFFFFFFFFFFFFFFFF1FFFFFFC0
FFFFFFFFFFFFFFFFFFFFFFFFFFFFFFFFFFF1FFFFFFC0
FFFFFFFFFFFFFFFFFFFFFFFFFFFFFFFFFFF1FFFFFFC0
FFFFFFFFFFFFFFFFFFFFFFFFFFFFFFFFFFF1FFFFFF80
FFFFFFFFFFFFFFFFFFFFFFFFFFFFFFFFFFF0FFFFFF80
FFFFFFFFFFFFFFFFFFFFFFFFFFFFFFFFFFF0FFFFFF80
FFFFFFFFFFFFFFFFFFFFFFFFFFFFFFFFFFF1FFFFFFC0
FFFFFFFFFFFFFFFFFFFFFFFFFFFFFFFFFFE1FFFFFFC0
F00000000000000000000000000000000001FFFFFFC0
00007800F001E000000000000003E1F00001FFFFFFC0
0001C6039C07380000000000000E3FFFFFFFFFF07FC0
00030106020C04000000000000180FFFFFFFFFC03FC0
00027C8CF919F200000000000033E7FFFFFFFFCF9FC0
0004FE49FD93FB00000000000027F3FFFFFFFF9FCFC0
0005FF4BFEA7F90000000000006FF3FFFFFFFFBFEFC0
000DFF53FEA7FD0000000000004FFBFFFFFFFFBFEF80
0009FF53FEA7FD0000000000004FFBFFFFFFFFBFEF80
0001FF03FE07FC0000000000000FF8000000003FE000
0001FF03FC07F80000000000000FF0000000003FE000
0000FE01FC03F800000000000007F0000000001FC000
00007800F001E000000000000003C0000000000F0000
ENDCHAR
STARTCHAR 2794
ENCODING 10132
SWIDTH 727 0
DWIDTH 48 0
BBX 41 34 3 0
BITMAP
000000800000
000001C00000
000003E00000
000007F00000
000007F80000
000003FC0000
000001FE0000
000000FF0000
0000007F8000
0000003FC000
0000001FE000
0000000FF000
00000007F800
00000003FC00
FFFFFFFFFE00
FFFFFFFFFF00
FFFFFFFFFF80
FFFFFFFFFF80
FFFFFFFFFF00
FFFFFFFFFE00
00000003FC00
00000007F800
0000000FF000
0000001FE000
0000003FC000
0000007F8000
000000FF0000
000001FE0000
000003FC0000
000007F80000
000007F00000
000003E00000
000001C00000
000000800000
ENDCHAR
STARTCHAR 463B
ENCODING 17979
SWIDTH 984 0
DWIDTH 65 0
BBX 59 21 3 0
BITMAP
0000FFFFC0000000
000FC00080000000
001E000060000000
007C000030000000
00F8000008000000
03F0000004000000
07F0000002600000
3FFFFFFFFFFF8000
7FFFFFFFFFFFFE00
7FFFFFFFFFFFFF80
7FFFFFFFFFFFFF80
7F9FFFFFFFFE0FC0
FE07FFFFFFF8E6E0
FCFBFFFFFFF9FBC0
79FDFFFFFFF3F980
0BFDFFFFFFF3FD00
03FDFFFFFFF3FC00
03FC00000003FC00
03FC00000003F800
01F800000001F800
00F0000000004000
ENDCHAR
STARTCHAR E031
ENCODING 57393
SWIDTH 409 0
DWIDTH 27 0
BBX 20 37 4 0
BITMAP
003800
006000
006000
004000
004000
00C000
01F000
03F800
03F800
07F800
07FC00
07F800
07F800
07F800
07F800
07F800
07F800
07F800
01F800
61F800
75F800
7EF800
FF7800
FFF800
FF7C00
7F3C00
1E1C00
0E1E00
0C1E00
1E0E00
1C0F00
380700
380780
3803C0
3803C0
0E03F0
0001E0
ENDCHAR
ENDFONT
